<svg width="12" height="12" viewBox="0 0 12 12" fill="none" xmlns="http://www.w3.org/2000/svg">
<g clip-path="url(#clip0_309_5657)">
<path d="M6.0002 11.8002C9.20345 11.8002 11.8002 9.20345 11.8002 6.0002C11.8002 2.79694 9.20345 0.200195 6.0002 0.200195C2.79694 0.200195 0.200195 2.79694 0.200195 6.0002C0.200195 9.20345 2.79694 11.8002 6.0002 11.8002Z" fill="#09A79D"/>
<path d="M8.92417 7.0362C8.92417 5.6842 7.67217 5.43619 6.49617 5.28019V3.7362C6.71568 3.76666 6.91988 3.86593 7.07943 4.01973C7.23899 4.17353 7.34567 4.37395 7.38417 4.5922H8.70817C8.58417 3.2402 7.41617 2.8522 6.48017 2.7442V1.7002H5.50417V2.7122C4.21217 2.8002 3.20017 3.3242 3.20017 4.5482C3.20017 5.77219 4.36017 6.0922 5.52017 6.2402V8.0002C5.23637 7.9818 4.9693 7.85944 4.77005 7.6565C4.5708 7.45356 4.45335 7.18429 4.44017 6.9002H3.07617C3.07617 8.02419 3.79617 8.82019 5.50417 8.96019V10.2202H6.49617V8.94819C7.66417 8.8602 8.92417 8.4002 8.92417 7.0362ZM4.52417 4.4442C4.52417 3.9802 4.92417 3.7282 5.51217 3.6722V5.1482C4.92417 5.0482 4.50817 4.88019 4.50817 4.4442H4.52417ZM6.52417 8.0122V6.4002C7.14817 6.51619 7.60417 6.7082 7.60417 7.17219C7.60417 7.6362 7.09217 7.93219 6.49617 8.0002L6.52417 8.0122Z" fill="white"/>
</g>
<defs>
<clipPath id="clip0_309_5657">
<rect width="12" height="12" fill="white"/>
</clipPath>
</defs>
</svg>
