<svg width="16" height="16" viewBox="0 0 16 16" fill="none" xmlns="http://www.w3.org/2000/svg">
<g clip-path="url(#clip0_309_5750)">
<path d="M7.99993 15.7333C12.2709 15.7333 15.7333 12.2709 15.7333 7.99993C15.7333 3.72893 12.2709 0.266602 7.99993 0.266602C3.72893 0.266602 0.266602 3.72893 0.266602 7.99993C0.266602 12.2709 3.72893 15.7333 7.99993 15.7333Z" fill="#09A79D"/>
<path d="M11.8989 9.38127C11.8989 7.5786 10.2296 7.24793 8.66156 7.03994V4.98127C8.95424 5.02189 9.22651 5.15424 9.43924 5.35931C9.65198 5.56438 9.79423 5.83161 9.84556 6.1226H11.6109C11.4456 4.31993 9.88823 3.8026 8.64023 3.6586V2.2666H7.3389V3.61594C5.61623 3.73327 4.2669 4.43194 4.2669 6.06394C4.2669 7.69594 5.81356 8.1226 7.36023 8.31994V10.6666C6.98182 10.6421 6.62573 10.4789 6.36007 10.2083C6.0944 9.93775 5.93781 9.57873 5.92023 9.19994H4.10156C4.10156 10.6986 5.06156 11.7599 7.3389 11.9466V13.6266H8.66156V11.9306C10.2189 11.8133 11.8989 11.1999 11.8989 9.38127ZM6.03223 5.92527C6.03223 5.3066 6.56556 4.9706 7.34956 4.89594V6.86393C6.56556 6.7306 6.0109 6.5066 6.0109 5.92527H6.03223ZM8.6989 10.6826V8.53327C9.5309 8.68794 10.1389 8.94394 10.1389 9.5626C10.1389 10.1813 9.45623 10.5759 8.66156 10.6666L8.6989 10.6826Z" fill="white"/>
</g>
<defs>
<clipPath id="clip0_309_5750">
<rect width="16" height="16" fill="white"/>
</clipPath>
</defs>
</svg>
