<svg width="12" height="12" viewBox="0 0 12 12" fill="none" xmlns="http://www.w3.org/2000/svg">
<g clip-path="url(#clip0_309_6201)">
<path d="M6.0002 11.8C9.20345 11.8 11.8002 9.2032 11.8002 5.99995C11.8002 2.7967 9.20345 0.199951 6.0002 0.199951C2.79694 0.199951 0.200195 2.7967 0.200195 5.99995C0.200195 9.2032 2.79694 11.8 6.0002 11.8Z" fill="#09A79D"/>
<path d="M8.92417 7.03595C8.92417 5.68395 7.67217 5.43595 6.49617 5.27995V3.73595C6.71568 3.76642 6.91988 3.86568 7.07943 4.01948C7.23899 4.17329 7.34567 4.37371 7.38417 4.59195H8.70817C8.58417 3.23995 7.41617 2.85195 6.48017 2.74395V1.69995H5.50417V2.71195C4.21217 2.79995 3.20017 3.32395 3.20017 4.54795C3.20017 5.77195 4.36017 6.09195 5.52017 6.23995V7.99995C5.23637 7.98156 4.9693 7.85919 4.77005 7.65625C4.5708 7.45331 4.45335 7.18405 4.44017 6.89995H3.07617C3.07617 8.02395 3.79617 8.81995 5.50417 8.95995V10.22H6.49617V8.94795C7.66417 8.85995 8.92417 8.39995 8.92417 7.03595ZM4.52417 4.44395C4.52417 3.97995 4.92417 3.72795 5.51217 3.67195V5.14795C4.92417 5.04795 4.50817 4.87995 4.50817 4.44395H4.52417ZM6.52417 8.01195V6.39995C7.14817 6.51595 7.60417 6.70795 7.60417 7.17195C7.60417 7.63595 7.09217 7.93195 6.49617 7.99995L6.52417 8.01195Z" fill="white"/>
</g>
<defs>
<clipPath id="clip0_309_6201">
<rect width="12" height="12" fill="white"/>
</clipPath>
</defs>
</svg>
