<svg width="48" height="48" viewBox="0 0 48 48" fill="none" xmlns="http://www.w3.org/2000/svg">
<g clip-path="url(#clip0_796_11251)">
<path d="M24 48C10.7664 48 0 37.2336 0 24C0 10.7664 10.7664 0 24 0C37.2336 0 48 10.7664 48 24C48 37.2336 37.2336 48 24 48ZM24 1.8C11.7588 1.8 1.8 11.7588 1.8 24C1.8 36.2412 11.7588 46.2 24 46.2C36.2412 46.2 46.2 36.2412 46.2 24C46.2 11.7588 36.2412 1.8 24 1.8Z" fill="#141414"/>
<path d="M39.2446 6.58L7.44775 40.1831L8.75564 41.4207L40.5525 7.81758L39.2446 6.58Z" fill="#141414"/>
<path d="M33.3785 17.7443L31.3319 11.6207C31.9709 11.0669 32.3477 10.2641 32.3477 9.39651C32.3477 7.76211 31.0181 6.43311 29.3843 6.43311H18.7553C17.1209 6.43311 15.7919 7.76271 15.7919 9.39651C15.7919 10.2011 16.1291 10.9673 16.7015 11.5199L14.6213 17.7443C13.7645 20.3093 13.3301 22.9715 13.3301 25.6577V37.5191C13.3301 40.1423 15.5579 42.2759 18.2963 42.2759H29.7035C32.4419 42.2759 34.6697 40.1423 34.6697 37.5191V25.6577C34.6697 22.9727 34.2353 20.3105 33.3785 17.7449V17.7443Z" fill="white"/>
<path d="M31.7645 18.2837L29.6585 11.9819H18.3413L16.2353 18.2837C15.4361 20.6753 15.0317 23.1569 15.0317 25.6577V37.5191C15.0317 39.2033 16.4957 40.5743 18.2963 40.5743H29.7035C31.5041 40.5743 32.9681 39.2033 32.9681 37.5191V25.6577C32.9681 23.1569 32.5631 20.6759 31.7645 18.2837ZM31.6169 37.5191C31.6169 38.4587 30.7589 39.2225 29.7041 39.2225H18.2963C17.2409 39.2225 16.3835 38.4587 16.3835 37.5191V26.9213C17.8109 27.3101 20.6741 27.7643 23.7791 26.4161C28.2599 24.4733 30.8675 25.8143 31.6169 26.3213V37.5191Z" fill="#141414"/>
<path d="M29.3845 10.6584H18.7555C18.0589 10.6584 17.4937 10.0932 17.4937 9.39657C17.4937 8.69997 18.0589 8.13477 18.7555 8.13477H29.3845C30.0811 8.13477 30.6463 8.69997 30.6463 9.39657C30.6463 10.0932 30.0811 10.6584 29.3845 10.6584Z" fill="#141414"/>
</g>
<defs>
<clipPath id="clip0_796_11251">
<rect width="48" height="48" fill="white"/>
</clipPath>
</defs>
</svg>
