<svg width="64" height="64" viewBox="0 0 64 64" fill="none" xmlns="http://www.w3.org/2000/svg">
<g clip-path="url(#clip0_796_10018)">
<path d="M32 64C14.3552 64 0 49.6448 0 32C0 14.3552 14.3552 0 32 0C49.6448 0 64 14.3552 64 32C64 49.6448 49.6448 64 32 64ZM32 2.4C15.6784 2.4 2.4 15.6784 2.4 32C2.4 48.3216 15.6784 61.6 32 61.6C48.3216 61.6 61.6 48.3216 61.6 32C61.6 15.6784 48.3216 2.4 32 2.4Z" fill="#141414"/>
<path d="M52.3265 8.7735L9.93066 53.5776L11.6745 55.2277L54.0703 10.4236L52.3265 8.7735Z" fill="#141414"/>
<path d="M44.5046 23.6592L41.7758 15.4944C42.6278 14.756 43.1302 13.6856 43.1302 12.5288C43.1302 10.3496 41.3574 8.57764 39.179 8.57764H25.007C22.8278 8.57764 21.0558 10.3504 21.0558 12.5288C21.0558 13.6016 21.5054 14.6232 22.2686 15.36L19.495 23.6592C18.3526 27.0792 17.7734 30.6288 17.7734 34.2104V50.0256C17.7734 53.5232 20.7438 56.368 24.395 56.368H39.6046C43.2558 56.368 46.2262 53.5232 46.2262 50.0256V34.2104C46.2262 30.6304 45.647 27.0808 44.5046 23.66V23.6592Z" fill="white"/>
<path d="M42.3529 24.3785L39.5449 15.9761H24.4553L21.6473 24.3785C20.5817 27.5673 20.0425 30.8761 20.0425 34.2105V50.0257C20.0425 52.2713 21.9945 54.0993 24.3953 54.0993H39.6049C42.0057 54.0993 43.9577 52.2713 43.9577 50.0257V34.2105C43.9577 30.8761 43.4177 27.5681 42.3529 24.3785ZM42.1561 50.0257C42.1561 51.2785 41.0121 52.2969 39.6057 52.2969H24.3953C22.9881 52.2969 21.8449 51.2785 21.8449 50.0257V35.8953C23.7481 36.4137 27.5657 37.0193 31.7057 35.2217C37.6801 32.6313 41.1569 34.4193 42.1561 35.0953V50.0257Z" fill="#141414"/>
<path d="M39.1791 14.211H25.0071C24.0783 14.211 23.3247 13.4574 23.3247 12.5286C23.3247 11.5998 24.0783 10.8462 25.0071 10.8462H39.1791C40.1079 10.8462 40.8615 11.5998 40.8615 12.5286C40.8615 13.4574 40.1079 14.211 39.1791 14.211Z" fill="#141414"/>
</g>
<defs>
<clipPath id="clip0_796_10018">
<rect width="64" height="64" fill="white"/>
</clipPath>
</defs>
</svg>
