<svg width="22" height="22" viewBox="0 0 22 22" fill="none" xmlns="http://www.w3.org/2000/svg">
<path d="M11.0003 12.5765C13.1771 12.5765 14.9417 10.8119 14.9417 8.63513C14.9417 6.45839 13.1771 4.69378 11.0003 4.69378C8.82361 4.69378 7.05901 6.45839 7.05901 8.63513C7.05901 10.8119 8.82361 12.5765 11.0003 12.5765Z" stroke="black" stroke-width="1.5" stroke-linecap="round" stroke-linejoin="round"/>
<path d="M4.26774 18.725C4.97125 17.5701 5.96001 16.6157 7.13894 15.9536C8.31788 15.2912 9.64734 14.9434 10.9995 14.9434C12.3518 14.9434 13.6812 15.2912 14.8602 15.9536C16.0391 16.6157 17.0278 17.5701 17.7314 18.725" stroke="black" stroke-width="1.5" stroke-linecap="round" stroke-linejoin="round"/>
<path d="M10.9999 21.2474C16.6595 21.2474 21.2474 16.6595 21.2474 10.9999C21.2474 5.3404 16.6595 0.752438 10.9999 0.752438C5.3404 0.752438 0.752438 5.3404 0.752438 10.9999C0.752438 16.6595 5.3404 21.2474 10.9999 21.2474Z" stroke="black" stroke-width="1.5" stroke-linecap="round" stroke-linejoin="round"/>
</svg>
