<svg width="64" height="64" viewBox="0 0 64 64" fill="none" xmlns="http://www.w3.org/2000/svg">
<g clip-path="url(#clip0_796_9994)">
<path d="M32 64C14.3552 64 0 49.6448 0 32C0 14.3552 14.3552 0 32 0C49.6448 0 64 14.3552 64 32C64 49.6448 49.6448 64 32 64ZM32 2.4C15.6784 2.4 2.4 15.6784 2.4 32C2.4 48.3216 15.6784 61.6 32 61.6C48.3216 61.6 61.6 48.3216 61.6 32C61.6 15.6784 48.3216 2.4 32 2.4Z" fill="#141414"/>
<path d="M52.3265 8.7735L9.93066 53.5776L11.6745 55.2277L54.0703 10.4236L52.3265 8.7735Z" fill="#141414"/>
<path d="M48.3362 40.3849C46.785 39.7665 45.1506 39.4369 43.5122 39.3889L44.2194 38.7369C47.0554 35.5433 48.321 31.1809 47.6122 26.9537L47.3762 25.5481L45.9706 25.3121C43.0778 24.8249 40.1242 25.2697 37.5146 26.5129C39.8122 22.1465 39.6882 16.6825 36.7154 12.3337C35.749 10.9201 34.5418 9.71367 33.129 8.74807L32.0002 7.97607L30.8714 8.74807C25.0522 12.7273 23.2594 20.4177 26.4786 26.5073C23.8762 25.2705 20.9202 24.8249 18.0242 25.3113L16.6186 25.5465L16.3826 26.9521C15.6754 31.1657 16.9298 35.5137 19.777 38.7353L20.501 39.3865C18.8586 39.4337 17.2186 39.7633 15.6634 40.3841L14.3394 40.9121L14.4066 42.3361C14.6178 46.8033 16.9586 50.9593 20.733 53.4945C24.033 55.5377 27.9802 56.1185 31.6962 55.1409L31.9994 56.1089L32.3018 55.1409C36.0226 56.1177 39.9714 55.5345 43.3282 53.4545C47.041 50.9601 49.3818 46.8041 49.5922 42.3361L49.6594 40.9129L48.3362 40.3849ZM31.1882 43.8041L31.2186 43.9841C31.1522 43.9073 31.077 43.8377 31.0082 43.7625L31.1874 43.8049L31.1882 43.8041ZM32.8154 43.7625L33.0306 43.7137C32.9482 43.8041 32.8586 43.8881 32.7786 43.9809L32.8154 43.7625Z" fill="white"/>
<path d="M31.9998 29.7911C37.355 26.1287 38.727 18.8183 35.0638 13.4639C34.2414 12.2615 33.2022 11.2223 31.9998 10.3999C26.6446 14.0607 25.2718 21.3703 28.9334 26.7247C29.7566 27.9287 30.7966 28.9687 31.9998 29.7911Z" fill="#141414"/>
<path d="M26.9502 40.737H26.8798L31.9062 41.9186L37.1134 40.737H37.047C39.0702 40.253 40.9222 39.2226 42.4006 37.7586C45.0766 34.9762 46.2774 31.0914 45.639 27.2842C41.8318 26.6458 37.9462 27.8466 35.1638 30.5226C33.5006 32.1994 32.395 34.3474 31.9966 36.6754C31.5982 34.3482 30.4926 32.1994 28.8294 30.5226C26.047 27.8466 22.1614 26.645 18.3542 27.2842C17.7158 31.0914 18.9166 34.9754 21.5918 37.7586C23.0718 39.2226 24.9254 40.253 26.9502 40.737Z" fill="#141414"/>
<path d="M36.6718 43.1906C34.4462 44.6626 32.7958 46.8578 31.9998 49.405C31.2038 46.857 29.5534 44.6626 27.3262 43.1906C24.0406 41.1642 19.9894 40.813 16.4038 42.2426C16.5854 46.0986 18.5814 49.6418 21.7862 51.7946C24.8454 53.689 28.591 54.1178 31.9998 52.9634C35.4078 54.1178 39.1534 53.689 42.2134 51.7946C45.4174 49.6418 47.4142 46.0986 47.5958 42.2426C44.0094 40.8122 39.9574 41.1642 36.6718 43.1906Z" fill="#141414"/>
</g>
<defs>
<clipPath id="clip0_796_9994">
<rect width="64" height="64" fill="white"/>
</clipPath>
</defs>
</svg>
