<svg width="48" height="48" viewBox="0 0 48 48" fill="none" xmlns="http://www.w3.org/2000/svg">
<g clip-path="url(#clip0_796_11227)">
<path d="M24 48C10.7664 48 0 37.2336 0 24C0 10.7664 10.7664 0 24 0C37.2336 0 48 10.7664 48 24C48 37.2336 37.2336 48 24 48ZM24 1.8C11.7588 1.8 1.8 11.7588 1.8 24C1.8 36.2412 11.7588 46.2 24 46.2C36.2412 46.2 46.2 36.2412 46.2 24C46.2 11.7588 36.2412 1.8 24 1.8Z" fill="#141414"/>
<path d="M39.2446 6.58001L7.44775 40.1831L8.75564 41.4207L40.5525 7.81759L39.2446 6.58001Z" fill="#141414"/>
<path d="M36.252 30.2885C35.0886 29.8247 33.8628 29.5775 32.634 29.5415L33.1644 29.0525C35.2914 26.6573 36.2406 23.3855 35.709 20.2151L35.532 19.1609L34.4778 18.9839C32.3082 18.6185 30.093 18.9521 28.1358 19.8845C29.859 16.6097 29.766 12.5117 27.5364 9.25013C26.8116 8.18993 25.9062 7.28513 24.8466 6.56093L24 5.98193L23.1534 6.56093C18.789 9.54533 17.4444 15.3131 19.8588 19.8803C17.907 18.9527 15.69 18.6185 13.518 18.9833L12.4638 19.1597L12.2868 20.2139C11.7564 23.3741 12.6972 26.6351 14.8326 29.0513L15.3756 29.5397C14.1438 29.5751 12.9138 29.8223 11.7474 30.2879L10.7544 30.6839L10.8048 31.7519C10.9632 35.1023 12.7188 38.2193 15.5496 40.1207C18.0246 41.6531 20.985 42.0887 23.772 41.3555L23.9994 42.0815L24.2262 41.3555C27.0168 42.0881 29.9784 41.6507 32.496 40.0907C35.2806 38.2199 37.0362 35.1029 37.194 31.7519L37.2444 30.6845L36.252 30.2885ZM23.391 32.8529L23.4138 32.9879C23.364 32.9303 23.3076 32.8781 23.256 32.8217L23.3904 32.8535L23.391 32.8529ZM24.6114 32.8217L24.7728 32.7851C24.711 32.8529 24.6438 32.9159 24.5838 32.9855L24.6114 32.8217Z" fill="white"/>
<path d="M24 22.3432C28.0164 19.5964 29.0454 14.1136 26.298 10.0978C25.6812 9.196 24.9018 8.4166 24 7.7998C19.9836 10.5454 18.954 16.0276 21.7002 20.0434C22.3176 20.9464 23.0976 21.7264 24 22.3432Z" fill="#141414"/>
<path d="M20.2128 30.5528H20.16L23.9298 31.439L27.8352 30.5528H27.7854C29.3028 30.1898 30.6918 29.417 31.8006 28.319C33.8076 26.2322 34.7082 23.3186 34.2294 20.4632C31.374 19.9844 28.4598 20.885 26.373 22.892C25.1256 24.1496 24.2964 25.7606 23.9976 27.5066C23.6988 25.7612 22.8696 24.1496 21.6222 22.892C19.5354 20.885 16.6212 19.9838 13.7658 20.4632C13.287 23.3186 14.1876 26.2316 16.194 28.319C17.304 29.417 18.6942 30.1898 20.2128 30.5528Z" fill="#141414"/>
<path d="M27.504 32.3928C25.8348 33.4968 24.597 35.1432 24 37.0536C23.403 35.1426 22.1652 33.4968 20.4948 32.3928C18.0306 30.873 14.9922 30.6096 12.303 31.6818C12.4392 34.5738 13.9362 37.2312 16.3398 38.8458C18.6342 40.2666 21.4434 40.5882 24 39.7224C26.556 40.5882 29.3652 40.2666 31.6602 38.8458C34.0632 37.2312 35.5608 34.5738 35.697 31.6818C33.0072 30.609 29.9682 30.873 27.504 32.3928Z" fill="#141414"/>
</g>
<defs>
<clipPath id="clip0_796_11227">
<rect width="48" height="48" fill="white"/>
</clipPath>
</defs>
</svg>
