<svg width="44" height="28" viewBox="0 0 44 28" fill="none" xmlns="http://www.w3.org/2000/svg">
<path opacity="0.07" d="M40.5263 0H3.47368C1.50526 0 0 1.51667 0 3.5V24.5C0 26.4833 1.62105 28 3.47368 28H40.5263C42.4947 28 44 26.4833 44 24.5V3.5C44 1.51667 42.3789 0 40.5263 0Z" fill="black"/>
<path d="M40.5266 1.1665C41.8003 1.1665 42.8424 2.2165 42.8424 3.49984V24.4998C42.8424 25.7832 41.8003 26.8332 40.5266 26.8332H3.47399C2.20031 26.8332 1.1582 25.7832 1.1582 24.4998V3.49984C1.1582 2.2165 2.20031 1.1665 3.47399 1.1665H40.5266Z" fill="#006FCF"/>
<path d="M25.4873 23.2586V13.4341L42.8418 13.4492V16.1629L40.8364 18.3236L42.8418 20.5017V23.2726H39.6391L37.937 21.3802L36.2465 23.2796L25.4873 23.2562V23.2586Z" fill="white"/>
<path d="M26.6465 22.1806V14.5156H33.0983V16.2808H28.7353V17.4801H32.9941V19.2161H28.7353V20.3945H33.0983V22.1806H26.6465Z" fill="#006FCF"/>
<path d="M33.0664 22.1808L36.6362 18.3436L33.0664 14.5146H35.8291L38.0106 16.9448L40.199 14.5158H42.8425V14.5753L39.3491 18.3436L42.8425 22.0735V22.182H40.1713L37.9516 19.7285L35.7539 22.1831H33.0664V22.1808Z" fill="#006FCF"/>
<path d="M26.2958 4.71338H30.4804L31.9498 8.07455V4.71338H37.114L38.0056 7.23221L38.8983 4.71338H42.8421V14.5379H22L26.2958 4.71338Z" fill="white"/>
<path d="M27.0893 5.78076L23.7129 13.4411H26.0287L26.6655 11.9069H30.116L30.7529 13.4411H33.1266L29.764 5.78076H27.0893ZM27.3788 10.1873L28.3919 7.74893L29.4028 10.1873H27.3788Z" fill="#006FCF"/>
<path d="M33.0938 13.4398V5.77832L36.3486 5.78999L38.0252 10.4998L39.7111 5.77949H42.8421V13.4387L40.8273 13.4573V8.19565L38.9238 13.4387H37.0827L35.1421 8.17815V13.4398H33.0949H33.0938Z" fill="#006FCF"/>
</svg>
