<svg width="44" height="28" viewBox="0 0 44 28" fill="none" xmlns="http://www.w3.org/2000/svg">
<path opacity="0.07" d="M40.5263 0H3.47368C1.50526 0 0 1.51667 0 3.5V24.5C0 26.4833 1.62105 28 3.47368 28H40.5263C42.4947 28 44 26.4833 44 24.5V3.5C44 1.51667 42.3789 0 40.5263 0Z" fill="black"/>
<path d="M40.5266 1.1665C41.8003 1.1665 42.8424 2.2165 42.8424 3.49984V24.4998C42.8424 25.7832 41.8003 26.8332 40.5266 26.8332H3.47399C2.20031 26.8332 1.1582 25.7832 1.1582 24.4998V3.49984C1.1582 2.2165 2.20031 1.1665 3.47399 1.1665H40.5266Z" fill="white"/>
<path d="M13.895 14.0002V18.3168C13.895 18.6668 13.6634 18.6668 13.3161 18.5502C11.1161 17.6168 9.84239 14.7002 10.6529 12.2502C11.1161 10.9668 12.0424 9.91683 13.3161 9.45016C13.7792 9.21683 13.895 9.3335 13.895 9.6835V14.0002ZM16.2108 14.0002V9.6835C16.2108 9.3335 16.2108 9.3335 16.5582 9.45016C18.9898 10.3835 20.2634 13.3002 19.3371 15.7502C18.874 17.0335 17.9477 18.0835 16.674 18.5502C16.2108 18.7835 16.2108 18.6668 16.2108 18.3168V14.0002ZM24.5477 5.8335H15.0529C19.4529 5.8335 22.9266 9.45016 22.9266 14.0002C22.9266 18.5502 19.4529 22.1668 15.0529 22.1668H24.5477C28.9477 22.1668 32.4213 18.5502 32.4213 14.0002C32.4213 9.45016 28.9477 5.8335 24.5477 5.8335Z" fill="#3086C8"/>
</svg>
