<svg width="57" height="36" viewBox="0 0 57 36" fill="none" xmlns="http://www.w3.org/2000/svg">
<path opacity="0.07" d="M52.5 0H4.5C1.95 0 0 1.95 0 4.5V31.5C0 34.05 2.1 36 4.5 36H52.5C55.05 36 57 34.05 57 31.5V4.5C57 1.95 54.9 0 52.5 0Z" fill="#141414"/>
<path d="M52.5 1.5C54.15 1.5 55.5 2.85 55.5 4.5V31.5C55.5 33.15 54.15 34.5 52.5 34.5H4.5C2.85 34.5 1.5 33.15 1.5 31.5V4.5C1.5 2.85 2.85 1.5 4.5 1.5H52.5Z" fill="white"/>
<path d="M42.45 15.15H42C41.4 16.65 40.95 17.4 40.5 19.65H43.35C42.9 17.4 42.9 16.35 42.45 15.15ZM46.8 24H44.25C44.1 24 44.1 24 43.95 23.85L43.65 22.5L43.5 22.2H39.9C39.75 22.2 39.6 22.2 39.6 22.5L39.15 23.85C39.15 24 39 24 39 24H35.85L36.15 23.25L40.5 13.05C40.5 12.3 40.95 12 41.7 12H43.95C44.1 12 44.25 12 44.25 12.3L46.35 22.05C46.5 22.65 46.65 23.1 46.65 23.7C46.8 23.85 46.8 23.85 46.8 24ZM26.7 23.55L27.3 20.85C27.45 20.85 27.6 21 27.6 21C28.65 21.45 29.7 21.75 30.75 21.6C31.05 21.6 31.5 21.45 31.8 21.3C32.55 21 32.55 20.25 31.95 19.65C31.65 19.35 31.2 19.2 30.75 18.9C30.15 18.6 29.55 18.3 29.1 17.85C27.3 16.35 27.9 14.25 28.95 13.2C29.85 12.6 30.3 12 31.5 12C33.3 12 35.25 12 36.15 12.3H36.3C36.15 13.2 36 13.95 35.7 14.85C34.95 14.55 34.2 14.25 33.45 14.25C33 14.25 32.55 14.25 32.1 14.4C31.8 14.4 31.65 14.55 31.5 14.7C31.2 15 31.2 15.45 31.5 15.75L32.25 16.35C32.85 16.65 33.45 16.95 33.9 17.25C34.65 17.7 35.4 18.45 35.55 19.35C35.85 20.7 35.4 21.9 34.2 22.8C33.45 23.4 33.15 23.7 32.1 23.7C30 23.7 28.35 23.85 27 23.4C26.85 23.7 26.85 23.7 26.7 23.55ZM21.45 24C21.6 22.95 21.6 22.95 21.75 22.5C22.5 19.2 23.25 15.75 23.85 12.45C24 12.15 24 12 24.3 12H27C26.7 13.8 26.4 15.15 25.95 16.8C25.5 19.05 25.05 21.3 24.45 23.55C24.45 23.85 24.3 23.85 24 23.85M7.5 12.3C7.5 12.15 7.8 12 7.95 12H13.05C13.8 12 14.4 12.45 14.55 13.2L15.9 19.8C15.9 19.95 15.9 19.95 16.05 20.1C16.05 19.95 16.2 19.95 16.2 19.95L19.35 12.3C19.2 12.15 19.35 12 19.5 12H22.65C22.65 12.15 22.65 12.15 22.5 12.3L17.85 23.25C17.7 23.55 17.7 23.7 17.55 23.85C17.4 24 17.1 23.85 16.8 23.85H14.55C14.4 23.85 14.25 23.85 14.25 23.55L11.85 14.25C11.55 13.95 11.1 13.5 10.5 13.35C9.6 12.9 7.95 12.6 7.65 12.6L7.5 12.3Z" fill="#142688"/>
</svg>
