<svg width="57" height="36" viewBox="0 0 57 36" fill="none" xmlns="http://www.w3.org/2000/svg">
<path opacity="0.07" d="M52.5 0H4.5C1.95 0 0 1.95 0 4.5V31.5C0 34.05 2.1 36 4.5 36H52.5C55.05 36 57 34.05 57 31.5V4.5C57 1.95 54.9 0 52.5 0Z" fill="#141414"/>
<path d="M52.5 1.5C54.15 1.5 55.5 2.85 55.5 4.5V31.5C55.5 33.15 54.15 34.5 52.5 34.5H4.5C2.85 34.5 1.5 33.15 1.5 31.5V4.5C1.5 2.85 2.85 1.5 4.5 1.5H52.5Z" fill="white"/>
<path d="M35.85 12.45C36.15 10.95 35.85 9.9 34.95 9C34.05 7.95 32.4 7.5 30.3 7.5H24.15C23.7 7.5 23.4 7.8 23.25 8.25L21 23.4C21 23.7 21.15 24 21.45 24H25.5L26.1 18.9L28.8 15.6L35.85 12.45Z" fill="#003087"/>
<path d="M35.8504 12.4502L35.5504 12.7502C34.8004 16.9502 32.2504 18.4502 28.6504 18.4502H27.0004C26.5504 18.4502 26.2504 18.7502 26.1004 19.2002L25.2004 25.0502L24.9004 26.5502C24.9004 26.8502 25.0504 27.1502 25.3504 27.1502H28.5004C28.9504 27.1502 29.2504 26.8502 29.2504 26.5502V26.4002L29.8504 22.8002V22.6502C29.8504 22.3502 30.3004 22.0502 30.6004 22.0502H31.0504C34.2004 22.0502 36.6004 20.8502 37.2004 17.2502C37.5004 15.7502 37.3504 14.5502 36.6004 13.6502C36.4504 12.9002 36.1504 12.6002 35.8504 12.4502Z" fill="#3086C8"/>
<path d="M34.9496 12.1502C34.7996 12.0002 34.6496 12.0002 34.4996 12.0002C34.3496 12.0002 34.1996 12.0002 34.0496 11.8502C33.5996 11.7002 32.9996 11.7002 32.3996 11.7002H27.8996C27.7496 11.7002 27.5996 11.7002 27.5996 11.8502C27.2996 12.0002 27.1496 12.1502 27.1496 12.4502L26.0996 19.0502V19.2002C26.0996 18.7502 26.5496 18.4502 26.9996 18.4502H28.9496C32.6996 18.4502 35.0996 16.9502 35.8496 12.7502V12.4502C35.6996 12.3002 35.3996 12.1502 35.0996 12.1502H34.9496Z" fill="#012169"/>
</svg>
