<svg width="44" height="28" viewBox="0 0 44 28" fill="none" xmlns="http://www.w3.org/2000/svg">
<path opacity="0.07" d="M40.5263 0H3.47368C1.50526 0 0 1.51667 0 3.5V24.5C0 26.4833 1.62105 28 3.47368 28H40.5263C42.4947 28 44 26.4833 44 24.5V3.5C44 1.51667 42.3789 0 40.5263 0Z" fill="black"/>
<path d="M40.5266 1.1665C41.8003 1.1665 42.8424 2.2165 42.8424 3.49984V24.4998C42.8424 25.7832 41.8003 26.8332 40.5266 26.8332H3.47399C2.20031 26.8332 1.1582 25.7832 1.1582 24.4998V3.49984C1.1582 2.2165 2.20031 1.1665 3.47399 1.1665H40.5266Z" fill="white"/>
<path d="M4.13332 8.35338H2.31543V14.77H4.13332C5.09438 14.77 5.78911 14.5367 6.4028 14.035C7.13227 13.4284 7.56069 12.5184 7.56069 11.5734C7.54911 9.67171 6.14806 8.35338 4.13332 8.35338ZM5.59227 13.1834C5.19859 13.5334 4.70069 13.6967 3.89017 13.6967H3.55438V9.45005H3.89017C4.68911 9.45005 5.17543 9.59005 5.59227 9.96338C6.02069 10.3484 6.27543 10.9434 6.27543 11.5617C6.27543 12.18 6.02069 12.7984 5.59227 13.1834ZM8.12806 8.35338H9.36701V14.77H8.12806V8.35338ZM12.4007 10.815C11.6596 10.535 11.4396 10.3484 11.4396 10.01C11.4396 9.60171 11.8333 9.29838 12.366 9.29838C12.7365 9.29838 13.0491 9.45005 13.3617 9.82338L14.0102 8.97171C13.4775 8.50505 12.8407 8.26005 12.1344 8.26005C11.0112 8.26005 10.1428 9.05338 10.1428 10.1034C10.1428 10.99 10.5481 11.445 11.706 11.865C12.1923 12.04 12.4354 12.1567 12.5628 12.2267C12.806 12.39 12.9333 12.6234 12.9333 12.8917C12.9333 13.4167 12.5281 13.8017 11.9723 13.8017C11.3817 13.8017 10.907 13.4984 10.6175 12.95L9.81859 13.7317C10.386 14.5834 11.0807 14.9567 12.0186 14.9567C13.3039 14.9567 14.2186 14.0934 14.2186 12.845C14.2417 11.8067 13.8133 11.34 12.4007 10.815ZM14.6239 11.5734C14.6239 13.4634 16.0944 14.9217 17.9817 14.9217C18.5144 14.9217 18.9775 14.8167 19.5333 14.5484V13.0784C19.0354 13.58 18.5954 13.7784 18.0396 13.7784C16.7891 13.7784 15.8975 12.8684 15.8975 11.5617C15.8975 10.325 16.8123 9.35671 17.9817 9.35671C18.5723 9.35671 19.0239 9.56671 19.5333 10.08V8.61005C18.9891 8.33005 18.5375 8.21338 18.0049 8.21338C16.1407 8.21338 14.6239 9.70671 14.6239 11.5734ZM29.3986 12.67L27.6965 8.35338H26.3417L29.0396 14.9334H29.7112L32.4554 8.35338H31.1123L29.3986 12.67ZM33.0228 14.77H36.5428V13.685H34.2617V11.9584H36.4617V10.8734H34.2617V9.45005H36.5428V8.35338H33.0228V14.77ZM41.4639 10.255C41.4639 9.05338 40.6417 8.36505 39.206 8.36505H37.3649V14.7817H38.6039V12.2034H38.766L40.4796 14.7817H42.0081L40.0049 12.075C40.9428 11.8767 41.4639 11.235 41.4639 10.255ZM38.9628 11.3167H38.6039V9.36838H38.986C39.7617 9.36838 40.1786 9.69505 40.1786 10.325C40.1786 10.9667 39.7617 11.3167 38.9628 11.3167Z" fill="#231F20"/>
<path d="M23.343 15.0036C24.2431 15.0036 25.1063 14.6433 25.7428 14.002C26.3792 13.3607 26.7368 12.491 26.7368 11.5841C26.7368 10.6771 26.3792 9.80738 25.7428 9.1661C25.1063 8.52482 24.2431 8.16455 23.343 8.16455C22.4429 8.16455 21.5797 8.52482 20.9432 9.1661C20.3068 9.80738 19.9492 10.6771 19.9492 11.5841C19.9492 12.491 20.3068 13.3607 20.9432 14.002C21.5797 14.6433 22.4429 15.0036 23.343 15.0036Z" fill="url(#paint0_linear_309_6377)"/>
<path opacity="0.65" d="M23.343 15.0036C24.2431 15.0036 25.1063 14.6433 25.7428 14.002C26.3792 13.3607 26.7368 12.491 26.7368 11.5841C26.7368 10.6771 26.3792 9.80738 25.7428 9.1661C25.1063 8.52482 24.2431 8.16455 23.343 8.16455C22.4429 8.16455 21.5797 8.52482 20.9432 9.1661C20.3068 9.80738 19.9492 10.6771 19.9492 11.5841C19.9492 12.491 20.3068 13.3607 20.9432 14.002C21.5797 14.6433 22.4429 15.0036 23.343 15.0036Z" fill="url(#paint1_linear_309_6377)"/>
<path d="M42.3439 8.75703C42.3439 8.64036 42.2628 8.58203 42.1355 8.58203H41.9502V9.14203H42.0891V8.92036L42.2513 9.14203H42.4134L42.2281 8.9087C42.2976 8.89703 42.3439 8.8387 42.3439 8.75703ZM42.1123 8.8387H42.0891V8.68703H42.1123C42.1818 8.68703 42.2165 8.71036 42.2165 8.75703C42.2165 8.81536 42.1818 8.8387 42.1123 8.8387Z" fill="#231F20"/>
<path d="M42.1592 8.37207C41.8928 8.37207 41.6729 8.59374 41.6729 8.86207C41.6729 9.1304 41.8928 9.35207 42.1592 9.35207C42.4255 9.35207 42.6455 9.1304 42.6455 8.86207C42.6455 8.59374 42.4255 8.37207 42.1592 8.37207ZM42.1592 9.2704C41.9507 9.2704 41.7655 9.0954 41.7655 8.86207C41.7655 8.6404 41.9392 8.45374 42.1592 8.45374C42.3676 8.45374 42.5413 8.6404 42.5413 8.86207C42.5413 9.08374 42.3676 9.2704 42.1592 9.2704Z" fill="#231F20"/>
<path d="M42.8424 15.1479C42.8424 15.1479 31.3677 23.1851 10.3936 26.8333H40.5254C41.1364 26.8333 41.7227 26.59 42.1564 26.1565C42.5902 25.7229 42.8364 25.1342 42.8412 24.5186L42.869 20.9953L42.8424 15.1479Z" fill="#F48120"/>
<defs>
<linearGradient id="paint0_linear_309_6377" x1="25.0764" y1="14.3211" x2="22.7064" y2="10.6378" gradientUnits="userSpaceOnUse">
<stop stop-color="#F89F20"/>
<stop offset="0.25" stop-color="#F79A20"/>
<stop offset="0.533" stop-color="#F68D20"/>
<stop offset="0.62" stop-color="#F58720"/>
<stop offset="0.723" stop-color="#F48120"/>
<stop offset="1" stop-color="#F37521"/>
</linearGradient>
<linearGradient id="paint1_linear_309_6377" x1="24.707" y1="14.2709" x2="21.2385" y2="7.54178" gradientUnits="userSpaceOnUse">
<stop stop-color="#F58720"/>
<stop offset="0.359" stop-color="#E16F27"/>
<stop offset="0.703" stop-color="#D4602C"/>
<stop offset="0.982" stop-color="#D05B2E"/>
</linearGradient>
</defs>
</svg>
