<svg width="44" height="28" viewBox="0 0 44 28" fill="none" xmlns="http://www.w3.org/2000/svg">
<path opacity="0.07" d="M40.5263 0H3.47368C1.50526 0 0 1.51667 0 3.5V24.5C0 26.4833 1.62105 28 3.47368 28H40.5263C42.4947 28 44 26.4833 44 24.5V3.5C44 1.51667 42.3789 0 40.5263 0Z" fill="black"/>
<path d="M40.5266 1.1665C41.8003 1.1665 42.8424 2.2165 42.8424 3.49984V24.4998C42.8424 25.7832 41.8003 26.8332 40.5266 26.8332H3.47399C2.20031 26.8332 1.1582 25.7832 1.1582 24.4998V3.49984C1.1582 2.2165 2.20031 1.1665 3.47399 1.1665H40.5266Z" fill="white"/>
<path d="M27.6741 9.6835C27.9057 8.51683 27.6741 7.70016 26.9794 7.00016C26.2846 6.1835 25.0109 5.8335 23.3899 5.8335H18.6425C18.2951 5.8335 18.0636 6.06683 17.9478 6.41683L16.2109 18.2002C16.2109 18.4335 16.3267 18.6668 16.5583 18.6668H19.6846L20.1478 14.7002L22.232 12.1335L27.6741 9.6835Z" fill="#003087"/>
<path d="M27.6733 9.68311L27.4418 9.91644C26.8628 13.1831 24.8944 14.3498 22.1154 14.3498H20.8418C20.4944 14.3498 20.2628 14.5831 20.147 14.9331L19.4523 19.4831L19.2207 20.6498C19.2207 20.8831 19.3365 21.1164 19.5681 21.1164H21.9997C22.347 21.1164 22.5786 20.8831 22.5786 20.6498V20.5331L23.0418 17.7331V17.6164C23.0418 17.3831 23.3891 17.1498 23.6207 17.1498H23.9681C26.3997 17.1498 28.2523 16.2164 28.7154 13.4164C28.947 12.2498 28.8312 11.3164 28.2523 10.6164C28.1365 10.0331 27.9049 9.79977 27.6733 9.68311Z" fill="#3086C8"/>
<path d="M26.979 9.4501C26.8632 9.33343 26.7475 9.33343 26.6317 9.33343C26.5159 9.33343 26.4001 9.33343 26.2843 9.21676C25.9369 9.1001 25.4738 9.1001 25.0106 9.1001H21.5369C21.4211 9.1001 21.3054 9.1001 21.3054 9.21676C21.0738 9.33343 20.958 9.4501 20.958 9.68343L20.1475 14.8168V14.9334C20.1475 14.5834 20.4948 14.3501 20.8422 14.3501H22.3475C25.2422 14.3501 27.0948 13.1834 27.6738 9.91676V9.68343C27.558 9.56676 27.3264 9.4501 27.0948 9.4501H26.979Z" fill="#012169"/>
</svg>
