<svg width="57" height="36" viewBox="0 0 57 36" fill="none" xmlns="http://www.w3.org/2000/svg">
<path opacity="0.07" d="M52.5 0H4.5C1.95 0 0 1.95 0 4.5V31.5C0 34.05 2.1 36 4.5 36H52.5C55.05 36 57 34.05 57 31.5V4.5C57 1.95 54.9 0 52.5 0Z" fill="#141414"/>
<path d="M52.5 1.5C54.15 1.5 55.5 2.85 55.5 4.5V31.5C55.5 33.15 54.15 34.5 52.5 34.5H4.5C2.85 34.5 1.5 33.15 1.5 31.5V4.5C1.5 2.85 2.85 1.5 4.5 1.5H52.5Z" fill="white"/>
<path d="M5.355 10.7401H3V18.9901H5.355C6.6 18.9901 7.5 18.6901 8.295 18.0451C9.24 17.2651 9.795 16.0951 9.795 14.8801C9.78 12.4351 7.965 10.7401 5.355 10.7401ZM7.245 16.9501C6.735 17.4001 6.09 17.6101 5.04 17.6101H4.605V12.1501H5.04C6.075 12.1501 6.705 12.3301 7.245 12.8101C7.8 13.3051 8.13 14.0701 8.13 14.8651C8.13 15.6601 7.8 16.4551 7.245 16.9501ZM10.53 10.7401H12.135V18.9901H10.53V10.7401ZM16.065 13.9051C15.105 13.5451 14.82 13.3051 14.82 12.8701C14.82 12.3451 15.33 11.9551 16.02 11.9551C16.5 11.9551 16.905 12.1501 17.31 12.6301L18.15 11.5351C17.46 10.9351 16.635 10.6201 15.72 10.6201C14.265 10.6201 13.14 11.6401 13.14 12.9901C13.14 14.1301 13.665 14.7151 15.165 15.2551C15.795 15.4801 16.11 15.6301 16.275 15.7201C16.59 15.9301 16.755 16.2301 16.755 16.5751C16.755 17.2501 16.23 17.7451 15.51 17.7451C14.745 17.7451 14.13 17.3551 13.755 16.6501L12.72 17.6551C13.455 18.7501 14.355 19.2301 15.57 19.2301C17.235 19.2301 18.42 18.1201 18.42 16.5151C18.45 15.1801 17.895 14.5801 16.065 13.9051ZM18.945 14.8801C18.945 17.3101 20.85 19.1851 23.295 19.1851C23.985 19.1851 24.585 19.0501 25.305 18.7051V16.8151C24.66 17.4601 24.09 17.7151 23.37 17.7151C21.75 17.7151 20.595 16.5451 20.595 14.8651C20.595 13.2751 21.78 12.0301 23.295 12.0301C24.06 12.0301 24.645 12.3001 25.305 12.9601V11.0701C24.6 10.7101 24.015 10.5601 23.325 10.5601C20.91 10.5601 18.945 12.4801 18.945 14.8801ZM38.085 16.2901L35.88 10.7401H34.125L37.62 19.2001H38.49L42.045 10.7401H40.305L38.085 16.2901ZM42.78 18.9901H47.34V17.5951H44.385V15.3751H47.235V13.9801H44.385V12.1501H47.34V10.7401H42.78V18.9901ZM53.715 13.1851C53.715 11.6401 52.65 10.7551 50.79 10.7551H48.405V19.0051H50.01V15.6901H50.22L52.44 19.0051H54.42L51.825 15.5251C53.04 15.2701 53.715 14.4451 53.715 13.1851ZM50.475 14.5501H50.01V12.0451H50.505C51.51 12.0451 52.05 12.4651 52.05 13.2751C52.05 14.1001 51.51 14.5501 50.475 14.5501Z" fill="#141414"/>
<path d="M30.2402 19.2901C31.4063 19.2901 32.5245 18.8269 33.349 18.0024C34.1735 17.1779 34.6367 16.0596 34.6367 14.8936C34.6367 13.7275 34.1735 12.6093 33.349 11.7848C32.5245 10.9603 31.4063 10.4971 30.2402 10.4971C29.0742 10.4971 27.956 10.9603 27.1315 11.7848C26.3069 12.6093 25.8438 13.7275 25.8438 14.8936C25.8438 16.0596 26.3069 17.1779 27.1315 18.0024C27.956 18.8269 29.0742 19.2901 30.2402 19.2901Z" fill="url(#paint0_linear_309_5881)"/>
<path opacity="0.65" d="M30.2402 19.2901C31.4063 19.2901 32.5245 18.8269 33.349 18.0024C34.1735 17.1779 34.6367 16.0596 34.6367 14.8936C34.6367 13.7275 34.1735 12.6093 33.349 11.7848C32.5245 10.9603 31.4063 10.4971 30.2402 10.4971C29.0742 10.4971 27.956 10.9603 27.1315 11.7848C26.3069 12.6093 25.8438 13.7275 25.8438 14.8936C25.8438 16.0596 26.3069 17.1779 27.1315 18.0024C27.956 18.8269 29.0742 19.2901 30.2402 19.2901Z" fill="url(#paint1_linear_309_5881)"/>
<path d="M54.8547 11.2592C54.8547 11.1092 54.7497 11.0342 54.5847 11.0342H54.3447V11.7542H54.5247V11.4692L54.7347 11.7542H54.9447L54.7047 11.4542C54.7947 11.4392 54.8547 11.3642 54.8547 11.2592ZM54.5547 11.3642H54.5247V11.1692H54.5547C54.6447 11.1692 54.6897 11.1992 54.6897 11.2592C54.6897 11.3342 54.6447 11.3642 54.5547 11.3642Z" fill="#141414"/>
<path d="M54.6153 10.7642C54.2703 10.7642 53.9854 11.0492 53.9854 11.3942C53.9854 11.7392 54.2703 12.0242 54.6153 12.0242C54.9603 12.0242 55.2454 11.7392 55.2454 11.3942C55.2454 11.0492 54.9603 10.7642 54.6153 10.7642ZM54.6153 11.9192C54.3453 11.9192 54.1053 11.6942 54.1053 11.3942C54.1053 11.1092 54.3303 10.8692 54.6153 10.8692C54.8853 10.8692 55.1104 11.1092 55.1104 11.3942C55.1104 11.6792 54.8853 11.9192 54.6153 11.9192Z" fill="#141414"/>
<path d="M55.4999 19.4761C55.4999 19.4761 40.6349 29.8096 13.4639 34.5001H52.4984C53.2899 34.5001 54.0493 34.1873 54.6112 33.6299C55.1732 33.0725 55.492 32.3156 55.4984 31.5241L55.5344 26.9941L55.4999 19.4761Z" fill="#F48120"/>
<defs>
<linearGradient id="paint0_linear_309_5881" x1="32.4857" y1="18.4126" x2="29.4482" y2="13.6561" gradientUnits="userSpaceOnUse">
<stop stop-color="#F89F20"/>
<stop offset="0.25" stop-color="#F79A20"/>
<stop offset="0.533" stop-color="#F68D20"/>
<stop offset="0.62" stop-color="#F58720"/>
<stop offset="0.723" stop-color="#F48120"/>
<stop offset="1" stop-color="#F37521"/>
</linearGradient>
<linearGradient id="paint1_linear_309_5881" x1="32.0072" y1="18.3481" x2="27.5672" y2="9.66907" gradientUnits="userSpaceOnUse">
<stop stop-color="#F58720"/>
<stop offset="0.359" stop-color="#E16F27"/>
<stop offset="0.703" stop-color="#D4602C"/>
<stop offset="0.982" stop-color="#D05B2E"/>
</linearGradient>
</defs>
</svg>
