<svg width="44" height="28" viewBox="0 0 44 28" fill="none" xmlns="http://www.w3.org/2000/svg">
<path opacity="0.07" d="M40.5263 0H3.47368C1.50526 0 0 1.51667 0 3.5V24.5C0 26.4833 1.62105 28 3.47368 28H40.5263C42.4947 28 44 26.4833 44 24.5V3.5C44 1.51667 42.3789 0 40.5263 0Z" fill="black"/>
<path d="M40.5266 1.1665C41.8003 1.1665 42.8424 2.2165 42.8424 3.49984V24.4998C42.8424 25.7832 41.8003 26.8332 40.5266 26.8332H3.47399C2.20031 26.8332 1.1582 25.7832 1.1582 24.4998V3.49984C1.1582 2.2165 2.20031 1.1665 3.47399 1.1665H40.5266Z" fill="white"/>
<path d="M17.368 22.1668C21.8444 22.1668 25.4732 18.5105 25.4732 14.0002C25.4732 9.48984 21.8444 5.8335 17.368 5.8335C12.8915 5.8335 9.2627 9.48984 9.2627 14.0002C9.2627 18.5105 12.8915 22.1668 17.368 22.1668Z" fill="#EB001B"/>
<path d="M26.6316 22.1668C31.108 22.1668 34.7369 18.5105 34.7369 14.0002C34.7369 9.48984 31.108 5.8335 26.6316 5.8335C22.1552 5.8335 18.5264 9.48984 18.5264 14.0002C18.5264 18.5105 22.1552 22.1668 26.6316 22.1668Z" fill="#F79E1B"/>
<path d="M25.4737 14.0001C25.4737 11.2001 24.0843 8.7501 22.0001 7.3501C19.9158 8.86676 18.5264 11.3168 18.5264 14.0001C18.5264 16.6834 19.9158 19.2501 22.0001 20.6501C24.0843 19.2501 25.4737 16.8001 25.4737 14.0001Z" fill="#FF5F00"/>
</svg>
