<svg width="57" height="36" viewBox="0 0 57 36" fill="none" xmlns="http://www.w3.org/2000/svg">
<path opacity="0.07" d="M52.5 0H4.5C1.95 0 0 1.95 0 4.5V31.5C0 34.05 2.1 36 4.5 36H52.5C55.05 36 57 34.05 57 31.5V4.5C57 1.95 54.9 0 52.5 0Z" fill="#141414"/>
<path d="M52.5 1.5C54.15 1.5 55.5 2.85 55.5 4.5V31.5C55.5 33.15 54.15 34.5 52.5 34.5H4.5C2.85 34.5 1.5 33.15 1.5 31.5V4.5C1.5 2.85 2.85 1.5 4.5 1.5H52.5Z" fill="white"/>
<path d="M22.5 28.5C28.299 28.5 33 23.799 33 18C33 12.201 28.299 7.5 22.5 7.5C16.701 7.5 12 12.201 12 18C12 23.799 16.701 28.5 22.5 28.5Z" fill="#EB001B"/>
<path d="M34.5 28.5C40.299 28.5 45 23.799 45 18C45 12.201 40.299 7.5 34.5 7.5C28.701 7.5 24 12.201 24 18C24 23.799 28.701 28.5 34.5 28.5Z" fill="#F79E1B"/>
<path d="M33 18.0002C33 14.4002 31.2 11.2502 28.5 9.4502C25.8 11.4002 24 14.5502 24 18.0002C24 21.4502 25.8 24.7502 28.5 26.5502C31.2 24.7502 33 21.6002 33 18.0002Z" fill="#FF5F00"/>
</svg>
