<svg width="57" height="36" viewBox="0 0 57 36" fill="none" xmlns="http://www.w3.org/2000/svg">
<path opacity="0.07" d="M52.5 0H4.5C1.95 0 0 1.95 0 4.5V31.5C0 34.05 2.1 36 4.5 36H52.5C55.05 36 57 34.05 57 31.5V4.5C57 1.95 54.9 0 52.5 0Z" fill="#141414"/>
<path d="M52.5 1.5C54.15 1.5 55.5 2.85 55.5 4.5V31.5C55.5 33.15 54.15 34.5 52.5 34.5H4.5C2.85 34.5 1.5 33.15 1.5 31.5V4.5C1.5 2.85 2.85 1.5 4.5 1.5H52.5Z" fill="#006FCF"/>
<path d="M33.0176 29.904V17.2725L55.4996 17.292V20.781L52.9016 23.559L55.4996 26.3595V29.922H51.3506L49.1456 27.489L46.9556 29.931L33.0176 29.901V29.904Z" fill="white"/>
<path d="M34.5195 28.5181V18.6631H42.8775V20.9326H37.2255V22.4746H42.7425V24.7066H37.2255V26.2216H42.8775V28.5181H34.5195Z" fill="#006FCF"/>
<path d="M42.8359 28.5181L47.4604 23.5846L42.8359 18.6616H46.4149L49.2409 21.7861L52.0759 18.6631H55.5004V18.7396L50.9749 23.5846L55.5004 28.3801V28.5196H52.0399L49.1644 25.3651L46.3174 28.5211H42.8359V28.5181Z" fill="#006FCF"/>
<path d="M34.065 6.06006H39.486L41.3895 10.3816V6.06006H48.0795L49.2345 9.29856L50.391 6.06006H55.5V18.6916H28.5L34.065 6.06006Z" fill="white"/>
<path d="M35.0928 7.43262L30.7188 17.2816H33.7188L34.5437 15.3091H39.0138L39.8387 17.2816H42.9137L38.5577 7.43262H35.0928ZM35.4678 13.0981L36.7803 9.96312L38.0897 13.0981H35.4678Z" fill="#006FCF"/>
<path d="M42.8711 17.2802V7.42969L47.0876 7.44469L49.2596 13.5002L51.4436 7.43119H55.4996V17.2787L52.8896 17.3027V10.5377L50.4236 17.2787H48.0386L45.5246 10.5152V17.2802H42.8726H42.8711Z" fill="#006FCF"/>
</svg>
