<svg width="57" height="36" viewBox="0 0 57 36" fill="none" xmlns="http://www.w3.org/2000/svg">
<path opacity="0.07" d="M52.5 0H4.5C1.95 0 0 1.95 0 4.5V31.5C0 34.05 2.1 36 4.5 36H52.5C55.05 36 57 34.05 57 31.5V4.5C57 1.95 54.9 0 52.5 0Z" fill="#141414"/>
<path d="M52.5 1.5C54.15 1.5 55.5 2.85 55.5 4.5V31.5C55.5 33.15 54.15 34.5 52.5 34.5H4.5C2.85 34.5 1.5 33.15 1.5 31.5V4.5C1.5 2.85 2.85 1.5 4.5 1.5H52.5Z" fill="white"/>
<path d="M17.9997 18V23.55C17.9997 24 17.6997 24 17.2497 23.85C14.3997 22.65 12.7497 18.9 13.7997 15.75C14.3997 14.1 15.5997 12.75 17.2497 12.15C17.8497 11.85 17.9997 12 17.9997 12.45V18ZM20.9997 18V12.45C20.9997 12 20.9997 12 21.4497 12.15C24.5997 13.35 26.2497 17.1 25.0497 20.25C24.4497 21.9 23.2497 23.25 21.5997 23.85C20.9997 24.15 20.9997 24 20.9997 23.55V18ZM31.7997 7.5H19.4997C25.1997 7.5 29.6997 12.15 29.6997 18C29.6997 23.85 25.1997 28.5 19.4997 28.5H31.7997C37.4997 28.5 41.9997 23.85 41.9997 18C41.9997 12.15 37.4997 7.5 31.7997 7.5Z" fill="#3086C8"/>
</svg>
