<svg width="44" height="28" viewBox="0 0 44 28" fill="none" xmlns="http://www.w3.org/2000/svg">
<path opacity="0.07" d="M40.5263 0H3.47368C1.50526 0 0 1.51667 0 3.5V24.5C0 26.4833 1.62105 28 3.47368 28H40.5263C42.4947 28 44 26.4833 44 24.5V3.5C44 1.51667 42.3789 0 40.5263 0Z" fill="black"/>
<path d="M40.5266 1.1665C41.8003 1.1665 42.8424 2.2165 42.8424 3.49984V24.4998C42.8424 25.7832 41.8003 26.8332 40.5266 26.8332H3.47399C2.20031 26.8332 1.1582 25.7832 1.1582 24.4998V3.49984C1.1582 2.2165 2.20031 1.1665 3.47399 1.1665H40.5266Z" fill="white"/>
<path d="M32.768 11.7835H32.4206C31.9575 12.9502 31.6101 13.5335 31.2627 15.2835H33.4627C33.1154 13.5335 33.1154 12.7168 32.768 11.7835ZM36.1259 18.6668H34.1575C34.0417 18.6668 34.0417 18.6668 33.9259 18.5502L33.6943 17.5002L33.5785 17.2668H30.7996C30.6838 17.2668 30.568 17.2668 30.568 17.5002L30.2206 18.5502C30.2206 18.6668 30.1049 18.6668 30.1049 18.6668H27.6733L27.9049 18.0835L31.2627 10.1502C31.2627 9.56683 31.6101 9.3335 32.1891 9.3335H33.9259C34.0417 9.3335 34.1575 9.3335 34.1575 9.56683L35.7785 17.1502C35.8943 17.6168 36.0101 17.9668 36.0101 18.4335C36.1259 18.5502 36.1259 18.5502 36.1259 18.6668ZM20.6101 18.3168L21.0733 16.2168C21.1891 16.2168 21.3049 16.3335 21.3049 16.3335C22.1154 16.6835 22.9259 16.9168 23.7364 16.8002C23.968 16.8002 24.3154 16.6835 24.547 16.5668C25.1259 16.3335 25.1259 15.7502 24.6627 15.2835C24.4312 15.0502 24.0838 14.9335 23.7364 14.7002C23.2733 14.4668 22.8101 14.2335 22.4627 13.8835C21.0733 12.7168 21.5364 11.0835 22.347 10.2668C23.0417 9.80016 23.3891 9.3335 24.3154 9.3335C25.7049 9.3335 27.2101 9.3335 27.9049 9.56683H28.0206C27.9049 10.2668 27.7891 10.8502 27.5575 11.5502C26.9785 11.3168 26.3996 11.0835 25.8206 11.0835C25.4733 11.0835 25.1259 11.0835 24.7785 11.2002C24.547 11.2002 24.4312 11.3168 24.3154 11.4335C24.0838 11.6668 24.0838 12.0168 24.3154 12.2502L24.8943 12.7168C25.3575 12.9502 25.8206 13.1835 26.168 13.4168C26.747 13.7668 27.3259 14.3502 27.4417 15.0502C27.6733 16.1002 27.3259 17.0335 26.3996 17.7335C25.8206 18.2002 25.5891 18.4335 24.7785 18.4335C23.1575 18.4335 21.8838 18.5502 20.8417 18.2002C20.7259 18.4335 20.7259 18.4335 20.6101 18.3168ZM16.5575 18.6668C16.6733 17.8502 16.6733 17.8502 16.7891 17.5002C17.368 14.9335 17.947 12.2502 18.4101 9.6835C18.5259 9.45016 18.5259 9.3335 18.7575 9.3335H20.8417C20.6101 10.7335 20.3785 11.7835 20.0312 13.0668C19.6838 14.8168 19.3364 16.5668 18.8733 18.3168C18.8733 18.5502 18.7575 18.5502 18.5259 18.5502M5.78906 9.56683C5.78906 9.45016 6.02064 9.3335 6.13643 9.3335H10.0733C10.6522 9.3335 11.1154 9.6835 11.2312 10.2668L12.2733 15.4002C12.2733 15.5168 12.2733 15.5168 12.3891 15.6335C12.3891 15.5168 12.5049 15.5168 12.5049 15.5168L14.9364 9.56683C14.8206 9.45016 14.9364 9.3335 15.0522 9.3335H17.4838C17.4838 9.45016 17.4838 9.45016 17.368 9.56683L13.7785 18.0835C13.6627 18.3168 13.6627 18.4335 13.547 18.5502C13.4312 18.6668 13.1996 18.5502 12.968 18.5502H11.2312C11.1154 18.5502 10.9996 18.5502 10.9996 18.3168L9.14696 11.0835C8.91538 10.8502 8.56801 10.5002 8.10485 10.3835C7.41012 10.0335 6.13643 9.80016 5.90485 9.80016L5.78906 9.56683Z" fill="#142688"/>
</svg>
