<svg width="156" height="32" viewBox="0 0 156 32" fill="none" xmlns="http://www.w3.org/2000/svg">
<g clip-path="url(#clip0_309_5331)">
<path d="M10.2855 30.0258C10.2855 28.1954 8.02117 29.1362 8.02117 24.7266V15.773L8.06725 9.3026C8.06725 8.413 7.73155 8.0802 7.0075 8.0802C6.28345 8.125 3.72953 8.925 1.65611 9.9106C0.497629 10.429 0.208008 10.7042 0.208008 11.2226C0.208008 12.6754 2.52497 12.1122 2.52497 15.773L2.57105 24.7266C2.57105 29.1362 0.208008 28.1954 0.208008 29.9746C0.208008 30.8194 1.03079 31.0562 2.28143 31.0562H8.31079C9.56143 31.0562 10.2855 30.8706 10.2855 30.0258Z" fill="#141414"/>
<path d="M8.25783 3.07538C8.30391 1.66738 7.14542 0.451378 5.65125 0.406578C3.43302 0.220978 1.06998 2.37778 1.0239 4.34258C0.925169 5.75058 1.9915 6.87698 3.57783 6.92178C5.74998 7.01778 8.15909 5.04658 8.25783 3.07538Z" fill="#141414"/>
<path d="M22.2648 31.4914C22.3767 31.485 22.4755 31.4658 22.5874 31.4594C22.7848 31.4402 22.9757 31.421 23.1666 31.3954C23.2983 31.3762 23.4167 31.3506 23.5484 31.3314C23.7064 31.3058 23.8709 31.2738 24.0289 31.2418C24.1671 31.2098 24.2988 31.1714 24.4304 31.1394C24.5686 31.101 24.7069 31.069 24.8385 31.0306C24.9767 30.9858 25.115 30.941 25.2532 30.8898C25.3717 30.8514 25.4902 30.8066 25.6086 30.7618C25.7534 30.7042 25.8851 30.6466 26.0233 30.5826C26.1221 30.5378 26.2274 30.493 26.3195 30.4482C26.4643 30.3778 26.596 30.301 26.7342 30.2306C26.8198 30.1858 26.8988 30.141 26.9777 30.0898C27.1226 30.0066 27.2542 29.917 27.3858 29.821C27.4517 29.7762 27.5175 29.7314 27.5833 29.6866C27.7215 29.5842 27.8532 29.4818 27.9783 29.373C28.0309 29.3282 28.0836 29.2898 28.1296 29.245C28.2613 29.1298 28.3864 29.0082 28.5114 28.8866C28.5509 28.8482 28.5838 28.8098 28.6233 28.7714C28.7484 28.637 28.8669 28.5026 28.9788 28.3618C29.0051 28.3298 29.0314 28.2978 29.0577 28.2658C29.1696 28.1186 29.275 27.965 29.3737 27.805C29.3934 27.7794 29.4066 27.7538 29.4264 27.7218C29.5251 27.5554 29.6172 27.389 29.7028 27.2162C29.7094 27.197 29.7226 27.1778 29.7291 27.1522C29.8147 26.973 29.8871 26.7874 29.9529 26.6018C29.9529 26.589 29.9595 26.5762 29.9661 26.5634C30.0319 26.3714 30.0846 26.173 30.1307 25.9682C30.1307 25.9618 30.1307 25.9554 30.1307 25.949C30.2096 25.5842 30.2557 25.2066 30.2557 24.8226C30.2557 24.5794 30.236 24.349 30.2031 24.1186C30.1965 24.061 30.1767 24.0034 30.1702 23.9458C30.1372 23.773 30.0977 23.6066 30.0451 23.4402C30.0319 23.389 30.0122 23.3378 29.9924 23.2866C29.9332 23.1138 29.8608 22.941 29.7752 22.7746C29.7621 22.7426 29.7423 22.7106 29.7291 22.6786C29.3737 22.0002 28.834 21.3858 28.156 20.829C28.1362 20.8162 28.1231 20.8034 28.1033 20.7906C27.6228 20.4002 27.0699 20.029 26.4512 19.677C26.4183 19.6578 26.3853 19.6386 26.3524 19.6194C26.0628 19.4594 25.7666 19.2994 25.4572 19.1394C25.4309 19.1266 25.4046 19.1138 25.3783 19.101C25.0426 18.9346 24.6937 18.7682 24.3383 18.6018C24.2922 18.5826 24.2461 18.5634 24.2 18.5378C23.8972 18.397 23.5813 18.2626 23.2588 18.1282C23.1732 18.0898 23.081 18.0514 22.9889 18.013C22.6203 17.8594 22.2517 17.7058 21.8633 17.5522C17.6704 15.8626 15.5443 14.8322 15.5443 13.0018C15.5443 11.645 16.7489 10.4674 19.0659 10.4674C21.238 10.4674 23.6471 11.7346 25.5296 13.0466C25.7205 13.1874 25.8983 13.3218 26.0694 13.4498C26.2076 13.5586 26.3393 13.6546 26.4643 13.7506C26.5236 13.7954 26.5762 13.8402 26.6355 13.8786C26.7342 13.9554 26.8264 14.0194 26.9185 14.0898C26.9646 14.1218 27.0107 14.1538 27.0502 14.1858C27.1489 14.2562 27.2476 14.3202 27.3398 14.3778C27.3661 14.3906 27.3924 14.4098 27.4188 14.429C27.5307 14.493 27.6426 14.5506 27.7479 14.5954C27.7742 14.6082 27.8005 14.6146 27.8203 14.621C27.8993 14.653 27.9717 14.6722 28.0507 14.685C28.0836 14.6914 28.1165 14.6914 28.1494 14.6978C28.1823 14.6978 28.2218 14.7106 28.2547 14.7106C28.2745 14.7106 28.2876 14.6978 28.3008 14.6978C28.439 14.6914 28.5707 14.6658 28.7089 14.5954C29.2421 14.3138 29.3342 13.661 28.9524 12.6754C28.5641 11.7346 28.2284 10.9858 27.557 9.76978C26.879 8.64338 26.5433 8.08018 25.8719 8.08018C25.7008 8.08018 25.5626 8.11858 25.4375 8.17618C25.4375 8.17618 25.4243 8.17618 25.4177 8.17618C25.2927 8.23378 25.1808 8.30418 25.0623 8.38098C24.9504 8.45138 24.8385 8.51538 24.7134 8.57298C24.7003 8.57938 24.6805 8.58578 24.6674 8.59218C24.5423 8.64338 24.3909 8.66898 24.2198 8.67538C24.1737 8.67538 24.1408 8.68178 24.0881 8.67538C22.7388 8.63058 21.1458 8.06738 18.4932 8.06738C14.8269 8.06738 10.68 10.0834 10.68 14.493C10.68 18.3842 14.3924 20.0738 18.3484 21.6674C22.3965 23.3058 24.957 24.573 24.957 26.4034C24.957 28.1378 23.4628 29.0722 21.5342 29.0722C18.8355 29.0722 16.1828 27.805 12.76 24.3362C12.6086 24.1954 12.4638 24.0738 12.3322 23.9586C12.2993 23.933 12.2664 23.901 12.2334 23.8754C12.0952 23.7666 11.9636 23.6642 11.8385 23.581C11.8188 23.5682 11.799 23.5554 11.7793 23.5426C11.6674 23.4722 11.5555 23.4146 11.4502 23.3698C11.4304 23.3634 11.4107 23.3506 11.3909 23.3442C11.2724 23.2994 11.1605 23.2802 11.0486 23.2802C11.0355 23.2802 11.0223 23.2738 11.0157 23.2738C11.0026 23.2738 10.9894 23.2802 10.9762 23.2802C10.8643 23.2802 10.7524 23.3058 10.6405 23.3506C10.1074 23.5362 9.91648 24.0098 10.1074 24.8482C10.5879 26.5826 11.121 27.8946 11.8451 29.7698C12.4704 31.1778 12.7139 31.5042 13.438 31.5042C14.3529 31.5042 14.5965 30.5634 15.3205 30.5634C16.3342 30.5634 17.8745 31.5042 21.3499 31.5042C21.6659 31.5042 21.9818 31.4914 22.2846 31.4722L22.2648 31.4914Z" fill="#141414"/>
<path d="M53.4382 19.1906C53.4382 12.9058 48.8109 8.0802 42.301 8.0802C34.7314 8.0802 29.2812 13.6098 29.2812 20.6434C29.2812 20.7842 29.2813 20.925 29.2878 21.0658C30.2686 22.0962 30.861 23.3186 30.861 24.8162C30.861 25.3154 30.8018 25.7954 30.6899 26.2562C32.5856 29.5778 36.2321 31.517 40.6094 31.517C48.1329 31.517 53.4382 26.173 53.4382 19.1842V19.1906ZM34.6853 18.0194C34.6853 14.1282 36.5152 10.8002 40.3724 10.8002C44.8549 10.8002 48.0868 16.3298 48.0868 21.9554C48.0868 25.8466 46.1121 28.8482 42.3997 28.8482C37.8645 28.8482 34.6853 23.8306 34.6853 18.0194Z" fill="#141414"/>
<path d="M67.8536 27.4593C67.8536 27.4593 67.8536 27.4657 67.8602 27.4721C67.9129 27.3697 67.9589 27.2609 67.9984 27.1585C68.0511 27.0177 68.0708 26.8833 68.0643 26.7553C68.0643 26.7233 68.0643 26.6913 68.0577 26.6593C68.0445 26.5569 68.0182 26.4673 67.9787 26.3841C67.9721 26.3649 67.9655 26.3521 67.9589 26.3329C67.9063 26.2433 67.8273 26.1729 67.7417 26.1153C67.722 26.1025 67.6957 26.0961 67.6693 26.0833C67.5903 26.0449 67.5113 26.0257 67.4192 26.0193C67.3994 26.0193 67.3863 26.0065 67.3665 26.0065C67.36 26.0065 67.3468 26.0129 67.3402 26.0129C67.2217 26.0129 67.0967 26.0449 66.965 26.1089C66.965 26.1089 66.965 26.1089 66.9584 26.1089C66.8729 26.1473 66.7807 26.1985 66.6951 26.2689C65.7802 27.0177 64.3782 27.7217 63.1276 27.7217C60.7184 27.7217 60.0865 26.2241 60.1392 22.5633C60.2379 17.3153 60.2379 13.7953 60.284 11.2161L64.4769 11.3569C65.3919 11.4017 66.2146 11.2609 66.4516 9.94892C66.6952 8.68172 65.9711 8.54092 65.1483 8.54092H60.3301C60.3762 6.99212 60.4288 5.82092 60.521 4.69452C60.567 3.99052 60.2774 3.47852 59.6521 3.47852C59.3164 3.47852 58.9741 3.47852 58.1119 4.04172C56.3281 5.21292 54.2546 6.85132 52.4708 8.73292C52.0364 9.20012 51.8916 9.57772 51.8916 10.0449C51.8916 10.7489 52.28 11.0753 53.3858 11.0753H54.9787C54.8339 13.7505 54.7878 17.7313 54.7878 22.5633V24.4833C54.7878 29.0337 56.96 31.5169 61.1068 31.5169C64.76 31.5169 67.0111 29.2513 67.8536 27.4529V27.4593Z" fill="#141414"/>
<path d="M96.7367 12.8674L96.7827 9.39857C96.7827 8.50897 96.4471 8.18257 95.7691 8.18257C95.045 8.22737 92.7346 8.93137 90.9969 9.68017C89.8384 10.1986 89.5488 10.525 89.5488 11.133C89.5488 11.6962 89.9372 12.0226 90.4177 12.349C91.5235 13.053 91.9119 14.0834 91.9119 15.5362V24.7266C91.9119 29.1362 89.5488 28.1954 89.5488 29.9746C89.5488 30.8194 90.365 31.0562 91.5762 31.0562H97.6516C98.9022 31.0562 99.6263 30.8706 99.6263 30.0258C99.6263 28.1954 97.362 29.1362 97.362 24.7266V18.9602C97.362 14.0834 100.159 11.6002 103.003 11.5554C106.814 11.5106 107.683 14.7874 108.308 18.1218L109.756 25.7186C110.336 28.765 107.782 28.5346 107.782 29.9874C107.782 30.8322 108.598 31.069 109.855 31.069H115.786C116.358 31.069 116.813 31.0242 117.142 30.9026C117.24 30.8642 117.326 30.8258 117.398 30.7746C117.398 30.7746 117.405 30.7746 117.412 30.7746C117.477 30.7298 117.537 30.6722 117.589 30.6082C117.589 30.6018 117.602 30.5954 117.609 30.589C117.649 30.5314 117.681 30.461 117.708 30.3906C117.708 30.3778 117.721 30.365 117.728 30.3458C117.754 30.2562 117.767 30.1538 117.767 30.045C117.767 29.9106 117.747 29.789 117.721 29.6802C117.721 29.6546 117.708 29.6354 117.701 29.6098C117.668 29.5074 117.629 29.4114 117.57 29.3218C117.563 29.309 117.556 29.3026 117.55 29.2898C117.497 29.2066 117.431 29.1298 117.359 29.0594C117.346 29.0466 117.339 29.0402 117.333 29.0274C116.727 28.4258 115.667 27.997 115.259 25.9618L113.666 17.853C112.416 11.1522 110.145 8.09937 104.984 8.09937C101.798 8.09937 98.6192 9.69297 96.7367 12.8802V12.8674Z" fill="#141414"/>
<path d="M68.4398 25.949C68.7228 26.3394 68.7689 26.8578 68.5714 27.3762C68.499 27.5618 68.4003 27.7666 68.2884 27.9778C70.3355 30.237 73.4094 31.5234 76.9638 31.5234C84.4874 31.5234 89.7927 26.1794 89.7927 19.1906C89.7927 12.9058 85.1654 8.0802 78.6555 8.0802C71.0859 8.0802 65.6357 13.6098 65.6357 20.6434C65.6357 22.4866 66.0109 24.1378 66.6889 25.5714C66.9127 25.4626 67.1365 25.405 67.3669 25.405C67.8013 25.405 68.1962 25.6034 68.4398 25.949ZM71.0398 18.0194C71.0398 14.1282 72.8697 10.8002 76.7269 10.8002C81.2094 10.8002 84.4413 16.3298 84.4413 21.9554C84.4413 25.8466 82.4666 28.8482 78.7542 28.8482C74.219 28.8482 71.0398 23.8306 71.0398 18.0194Z" fill="#141414"/>
<path d="M124.224 24.7266V15.773L124.27 9.3026C124.27 8.413 123.935 8.0802 123.211 8.0802C122.487 8.125 119.933 8.925 117.859 9.9106C116.701 10.429 116.411 10.7042 116.411 11.2226C116.411 12.6754 118.728 12.1122 118.728 15.773L118.774 24.7266C118.774 26.9986 118.149 27.8498 117.543 28.381C117.971 28.7522 118.379 29.2066 118.379 30.0258C118.379 30.4802 118.234 30.8066 118.011 31.0434C118.162 31.0498 118.32 31.0562 118.485 31.0562H124.514C125.264 31.0562 125.817 30.9858 126.146 30.749C126.252 30.6722 126.331 30.5826 126.383 30.4738C126.39 30.461 126.396 30.4418 126.403 30.429C126.449 30.3138 126.482 30.1858 126.482 30.0322C126.482 29.8082 126.449 29.629 126.39 29.4754C126.39 29.4754 126.39 29.4754 126.39 29.469C126.331 29.3154 126.245 29.1874 126.146 29.0722C125.514 28.349 124.224 28.061 124.224 24.7458V24.7266Z" fill="#141414"/>
<path d="M118.82 4.35537C118.721 5.78897 119.794 6.93457 121.393 6.97937C123.19 7.05617 125.126 5.71217 125.823 4.12497C126.686 6.12177 127.765 9.32817 129.022 11.3698C133.597 18.7874 134.729 20.0866 134.729 20.0866L130.194 25.6162C128.7 27.4786 127.429 28.157 126.62 28.6882C126.89 29.0018 127.094 29.405 127.094 30.0258C127.094 30.4418 126.975 30.749 126.784 30.9794C127.074 31.0306 127.403 31.0562 127.778 31.0562H131.491C132.741 31.0562 133.518 30.8706 133.518 30.0258C133.518 28.5282 130.721 28.8034 133.274 25.6162L136.164 22.0066L138.817 25.5202C141.278 28.8034 138.428 28.5218 138.428 29.9746C138.428 30.8194 139.245 31.0562 140.502 31.0562H147.973C149.223 31.0562 150 30.8706 150 30.0258C150 28.5282 147.973 28.8034 145.564 25.5266L140.647 18.9602L144.603 13.9874C147.156 10.8002 149.085 11.0818 149.085 9.57777C149.085 8.78417 148.315 8.54737 147.058 8.54737H143.299C142.049 8.54737 141.325 8.73297 141.325 9.57777C141.325 11.0754 144.122 10.7938 141.515 13.9874L139.152 16.9378C139.152 16.9378 135.973 12.957 132.952 8.54737C126.613 -0.707025 123.467 -0.252626 121.986 0.560174C120.301 1.14257 118.859 2.80017 118.82 4.35537Z" fill="#141414"/>
<path d="M151.192 10.7299C151.192 10.4291 151.252 10.1475 151.37 9.89145C151.489 9.62905 151.647 9.39865 151.851 9.20665C152.055 9.00825 152.285 8.85465 152.555 8.73945C152.825 8.62425 153.114 8.56665 153.417 8.56665C153.72 8.56665 154.01 8.62425 154.279 8.73945C154.549 8.85465 154.786 9.00825 154.984 9.20665C155.188 9.40505 155.346 9.62905 155.464 9.89145C155.583 10.1539 155.642 10.4355 155.642 10.7299C155.642 11.0243 155.583 11.3059 155.464 11.5682C155.346 11.8307 155.188 12.061 154.984 12.253C154.78 12.4514 154.549 12.6051 154.279 12.7203C154.01 12.8355 153.72 12.893 153.417 12.893C153.114 12.893 152.825 12.8355 152.555 12.7203C152.285 12.6051 152.048 12.4514 151.851 12.253C151.647 12.0546 151.489 11.8307 151.37 11.5682C151.252 11.3059 151.192 11.0243 151.192 10.7299ZM151.798 10.7299C151.798 10.9539 151.837 11.1651 151.923 11.3635C152.009 11.5619 152.12 11.7346 152.272 11.8819C152.423 12.029 152.588 12.1443 152.785 12.2339C152.976 12.3235 153.187 12.3618 153.411 12.3618C153.634 12.3618 153.845 12.3171 154.036 12.2339C154.233 12.1443 154.405 12.029 154.549 11.8819C154.694 11.7346 154.813 11.5619 154.898 11.3635C154.984 11.1651 155.023 10.9539 155.023 10.7299C155.023 10.5059 154.984 10.2947 154.898 10.0899C154.813 9.88505 154.701 9.71865 154.549 9.57145C154.398 9.42425 154.233 9.30905 154.036 9.21945C153.845 9.12985 153.634 9.09145 153.411 9.09145C153.187 9.09145 152.976 9.13625 152.785 9.21945C152.588 9.30905 152.417 9.42425 152.272 9.57145C152.127 9.71865 152.009 9.89145 151.923 10.0899C151.837 10.2883 151.798 10.4995 151.798 10.7299ZM152.562 9.57145H153.391C153.457 9.57145 153.542 9.57145 153.654 9.58425C153.766 9.59065 153.878 9.62265 153.983 9.66745C154.089 9.71225 154.187 9.78905 154.266 9.88505C154.345 9.98105 154.385 10.1219 154.385 10.3075C154.385 10.4227 154.372 10.5186 154.339 10.5954C154.306 10.6722 154.266 10.7299 154.22 10.7811C154.168 10.8323 154.108 10.8643 154.049 10.8899C153.983 10.9155 153.917 10.9347 153.852 10.9411L154.451 11.8435H153.819L153.286 10.973H153.187V11.8435H152.575V9.57785L152.562 9.57145ZM153.167 10.5123H153.411C153.444 10.5123 153.483 10.5123 153.529 10.5123C153.575 10.5123 153.608 10.4995 153.648 10.4803C153.68 10.4675 153.713 10.4419 153.733 10.4099C153.759 10.3779 153.773 10.333 153.773 10.2754C153.773 10.2178 153.759 10.1731 153.733 10.1411C153.707 10.1091 153.68 10.0834 153.648 10.0706C153.608 10.0579 153.575 10.0451 153.529 10.0387C153.49 10.0387 153.45 10.0387 153.411 10.0387H153.167V10.5251V10.5123Z" fill="#141414"/>
</g>
<defs>
<clipPath id="clip0_309_5331">
<rect width="156" height="32" fill="white"/>
</clipPath>
</defs>
</svg>
