<svg width="85" height="15" viewBox="0 0 85 15" fill="none" xmlns="http://www.w3.org/2000/svg">
<g clip-path="url(#clip0_309_6014)">
<path d="M0 11.676V0.234009H1.28411V11.676H0Z" fill="#141414"/>
<path d="M16.241 7.00503V10.038C16.2183 10.6113 16.3604 11.1793 16.6508 11.676H15.2878C15.0464 11.2688 14.9225 10.804 14.9296 10.332V10.302C14.2678 11.214 12.9108 12 11.0621 12C9.21334 12 6.71191 11.244 6.71191 9.00004C6.71191 6.75604 9.2012 6.01503 11.0621 6.01503C12.923 6.01503 14.2678 6.77703 14.9296 7.70403V7.00503C14.9296 4.96503 13.7548 4.03803 11.4082 4.03803C10.2216 4.02341 9.058 4.3621 8.06888 5.01004L7.46174 4.08303C8.71635 3.32864 10.1581 2.93297 11.6267 2.94003C14.4894 2.93703 16.241 4.32903 16.241 7.00503ZM14.96 8.84704C14.2253 7.53304 12.6133 7.06804 11.1714 7.06804C9.92066 7.06804 7.98084 7.42503 7.98084 9.00004C7.98084 10.575 9.92066 10.935 11.1714 10.935C12.6133 10.935 14.2253 10.455 14.96 9.15604V8.84704Z" fill="#141414"/>
<path d="M31.1549 3.24597L24.5037 14.769H23.1103L25.3172 11.1L20.7637 3.25797H22.2208L26.0063 9.80397L29.7494 3.24597H31.1549Z" fill="#141414"/>
<path d="M40.4201 10.917C42.1079 10.917 43.1249 10.5 44.1115 9.588L44.9554 10.47C43.7988 11.505 42.3751 12 40.3563 12C37.0535 12 35.1592 10.236 35.1592 7.47C35.1592 4.704 37.0535 2.922 40.2774 2.922C43.3131 2.922 45.2529 4.545 45.2529 7.452C45.255 7.5459 45.2448 7.63968 45.2226 7.731H36.4585C36.586 9.867 38.1494 10.917 40.4201 10.917ZM36.5222 6.681H43.9536C43.5802 4.809 42.1322 4.005 40.2926 4.005C38.3224 4.005 36.8501 4.902 36.5222 6.681Z" fill="#141414"/>
<path d="M50.7451 11.676V3.246H52.0292V5.319C52.7183 3.897 54.4244 3.078 56.2792 3.078V4.221C54.3394 4.221 52.6789 5.073 52.0292 6.759V11.676H50.7451Z" fill="#141414"/>
<path d="M65.2863 10.917C66.9741 10.917 67.9911 10.5 68.9777 9.588L69.8216 10.47C68.662 11.505 67.2382 12 65.2195 12C61.9166 12 60.0254 10.236 60.0254 7.47C60.0254 4.704 61.9288 2.922 65.1436 2.922C68.1793 2.922 70.1191 4.545 70.1191 7.452C70.1227 7.54596 70.1125 7.63994 70.0888 7.731H61.3216C61.4491 9.867 63.0156 10.917 65.2863 10.917ZM61.3884 6.681H68.8199C68.4434 4.809 66.9984 4.005 65.1588 4.005C63.1856 4.005 61.7163 4.902 61.3884 6.681Z" fill="#141414"/>
<path d="M83.7162 4.87196V0.230957H85.0003V11.676H83.7162V10.05C82.936 11.226 81.4789 12 79.6028 12C76.7553 12 74.9824 10.2 74.9824 7.46696C74.9824 4.73396 76.7674 2.93696 79.6149 2.93696C81.4789 2.93696 82.933 3.69596 83.7162 4.87196ZM83.7162 8.79896V6.12296C82.8419 4.62296 81.5122 4.06796 79.9306 4.06796C77.584 4.06796 76.2696 5.28896 76.2696 7.46996C76.2696 9.65096 77.584 10.857 79.9306 10.857C81.5122 10.857 82.8419 10.299 83.7162 8.79896Z" fill="#141414"/>
</g>
<defs>
<clipPath id="clip0_309_6014">
<rect width="85" height="15" fill="white"/>
</clipPath>
</defs>
</svg>
