<svg width="143" height="26" viewBox="0 0 143 26" fill="none" xmlns="http://www.w3.org/2000/svg">
<g clip-path="url(#clip0_309_5369)">
<path d="M0 20.2384V0.40564H2.16032V20.2384H0Z" fill="#141414"/>
<path d="M27.3233 12.142V17.3992C27.285 18.3929 27.5241 19.3773 28.0128 20.2384H25.7197C25.3135 19.5325 25.1051 18.7268 25.117 17.9088V17.8568C24.0037 19.4376 21.7208 20.8 18.6105 20.8C15.5003 20.8 11.292 19.4896 11.292 15.6C11.292 11.7104 15.4798 10.426 18.6105 10.426C21.7412 10.426 24.0037 11.7468 25.117 13.3536V12.142C25.117 8.60599 23.1406 6.99919 19.1927 6.99919C17.1965 6.97384 15.2389 7.56091 13.5749 8.68399L12.5535 7.07719C14.6642 5.76957 17.0898 5.08374 19.5605 5.09599C24.3765 5.09079 27.3233 7.50359 27.3233 12.142ZM25.1681 15.3348C23.9322 13.0572 21.2203 12.2512 18.7944 12.2512C16.6902 12.2512 13.4268 12.87 13.4268 15.6C13.4268 18.33 16.6902 18.954 18.7944 18.954C21.2203 18.954 23.9322 18.122 25.1681 15.8704V15.3348Z" fill="#141414"/>
<path d="M52.4144 5.62634L41.2246 25.5995H38.8804L42.5933 19.2399L34.9326 5.64714H37.384L43.7527 16.9935L50.0498 5.62634H52.4144Z" fill="#141414"/>
<path d="M68.0011 18.9227C70.8406 18.9227 72.5515 18.1999 74.2114 16.6191L75.6311 18.1479C73.6853 19.9419 71.2901 20.7999 67.8938 20.7999C62.3372 20.7999 59.1504 17.7423 59.1504 12.9479C59.1504 8.1535 62.3372 5.0647 67.761 5.0647C72.8682 5.0647 76.1316 7.8779 76.1316 12.9167C76.1352 13.0795 76.118 13.242 76.0806 13.4003H61.3362C61.5507 17.1027 64.1809 18.9227 68.0011 18.9227ZM61.4435 11.5803H73.9458C73.3176 8.3355 70.8815 6.9419 67.7866 6.9419C64.472 6.9419 61.9951 8.4967 61.4435 11.5803Z" fill="#141414"/>
<path d="M85.3711 20.2384V5.62641H87.5314V9.21961C88.6907 6.75481 91.5609 5.33521 94.6814 5.33521V7.31641C91.4179 7.31641 88.6243 8.79321 87.5314 11.7156V20.2384H85.3711Z" fill="#141414"/>
<path d="M109.834 18.9227C112.674 18.9227 114.385 18.1999 116.044 16.6191L117.464 18.1479C115.513 19.9419 113.118 20.7999 109.722 20.7999C104.165 20.7999 100.983 17.7423 100.983 12.9479C100.983 8.1535 104.186 5.0647 109.594 5.0647C114.701 5.0647 117.965 7.8779 117.965 12.9167C117.971 13.0796 117.953 13.2425 117.914 13.4003H103.164C103.379 17.1027 106.014 18.9227 109.834 18.9227ZM103.277 11.5803H115.779C115.146 8.3355 112.715 6.9419 109.62 6.9419C106.3 6.9419 103.828 8.4967 103.277 11.5803Z" fill="#141414"/>
<path d="M140.84 8.44479V0.400391H143V20.2384H140.84V17.42C139.527 19.4584 137.076 20.8 133.92 20.8C129.129 20.8 126.146 17.68 126.146 12.9428C126.146 8.20559 129.149 5.09079 133.94 5.09079C137.076 5.09079 139.522 6.40639 140.84 8.44479ZM140.84 15.2516V10.6132C139.369 8.01319 137.132 7.05119 134.471 7.05119C130.523 7.05119 128.312 9.16759 128.312 12.948C128.312 16.7284 130.523 18.8188 134.471 18.8188C137.132 18.8188 139.369 17.8516 140.84 15.2516Z" fill="#141414"/>
</g>
<defs>
<clipPath id="clip0_309_5369">
<rect width="143" height="26" fill="white"/>
</clipPath>
</defs>
</svg>
