<svg width="131" height="39" viewBox="0 0 131 39" fill="none" xmlns="http://www.w3.org/2000/svg">
<g clip-path="url(#clip0_309_5355)">
<path d="M18.2208 11.96V20.03C18.2208 22.03 18.7766 23.595 19.8732 24.73C20.4273 25.2991 21.0928 25.7459 21.8275 26.042C22.5621 26.3381 23.3499 26.477 24.1407 26.45C24.9343 26.4774 25.7248 26.3373 26.4615 26.0385C27.1982 25.7397 27.8646 25.2888 28.418 24.715C29.5097 23.565 30.0704 21.9 30.0704 19.765V11.965H29.1276V19.835C29.1276 21.66 28.6612 23.085 27.7382 24.085C27.2792 24.5787 26.7207 24.968 26.1003 25.2267C25.4799 25.4854 24.8117 25.6075 24.1407 25.585C23.4721 25.6054 22.8068 25.4822 22.1891 25.2235C21.5714 24.9649 21.0154 24.5768 20.558 24.085C19.64 23.085 19.1686 21.715 19.1686 19.975V11.96H18.2208ZM55.8238 26.265H56.7765V11.965H55.7841L50.2662 18.725L44.7285 11.955H43.7361V26.255H44.6789V13.255L50.2464 20.125L55.8238 13.28V26.28V26.265ZM85.4179 26.265H90.0624V25.5H86.3706V19.45H89.5166V18.685H86.3706V12.725H89.7796V11.96H85.4278V26.26L85.4179 26.265ZM126.117 26.265H130.752V25.5H127.06V19.45H130.206V18.685H127.06V12.725H130.469V11.96H126.117V26.26V26.265ZM113.702 26.265H114.813L111.653 21.395C110.869 20.165 110.238 19.435 109.782 19.215L109.598 19.125L109.787 19.055C111.563 18.395 112.466 17.235 112.466 15.605C112.485 15.099 112.388 14.5955 112.181 14.1339C111.975 13.6724 111.665 13.2654 111.276 12.945C110.482 12.295 109.291 11.945 107.802 11.945H104.204V26.245H105.147V19.32H107.167C107.899 19.2715 108.628 19.4457 109.261 19.82C109.757 20.155 110.392 21 111.246 22.32L113.727 26.25L113.702 26.265ZM107.599 18.565H105.118V12.72H107.549C108.56 12.6613 109.563 12.9351 110.407 13.5C110.733 13.7505 110.994 14.0771 111.166 14.4517C111.339 14.8262 111.419 15.2374 111.4 15.65C111.42 16.0647 111.34 16.4782 111.167 16.8552C110.994 17.2322 110.734 17.5615 110.407 17.815C109.57 18.3674 108.577 18.6306 107.579 18.565H107.599ZM0.248047 26.265H4.88267V25.5H1.19085V11.96H0.248047V26.26V26.265ZM71.1071 0.334961L70.3926 26.475H71.782L71.1022 0.334961M48.728 32.125H50.9411C51.4059 32.0896 51.873 32.1488 52.3146 32.2991C52.7561 32.4495 53.1632 32.6878 53.5115 33C54.0791 33.6294 54.3936 34.4494 54.3936 35.3C54.3936 36.1505 54.0791 36.9705 53.5115 37.6C53.1803 37.9121 52.7896 38.1528 52.363 38.3076C51.9364 38.4623 51.4829 38.5278 51.0304 38.5H48.723L48.728 32.125ZM49.2242 32.535V38.1H51.0105C51.7661 38.1267 52.5018 37.8538 53.0599 37.34C53.3298 37.0846 53.5425 36.774 53.6837 36.4291C53.8249 36.0842 53.8914 35.7129 53.8787 35.34C53.8895 34.9682 53.8232 34.5983 53.6839 34.2539C53.5446 33.9095 53.3354 33.5982 53.0698 33.34C52.789 33.0774 52.4594 32.8733 52.1001 32.7394C51.7407 32.6055 51.3586 32.5446 50.9758 32.56L49.2242 32.535ZM59.7141 32.115V32.525H58.2255V35.09H59.6149V35.5H58.2255V38.1H59.863V38.5H57.7094V32.115H59.7141ZM77.3098 32.125V38.5H76.8136V32.125H77.3098ZM82.8674 32.115V32.525H81.3787V35.09H82.778V35.5H81.3886V38.1H83.0162V38.5H80.8924V32.115H82.8674ZM71.0972 38.515L68.6955 32.125H68.1993L70.606 38.515H71.0922" fill="#8D734A"/>
<path d="M71.5439 38.5151L73.9406 32.1251H73.4543L71.0576 38.5151H71.5439ZM86.3806 8.57007H87.1746L88.1968 10.6901H87.8693L86.3806 8.57007ZM86.4749 31.5601C86.632 31.5601 86.7875 31.5912 86.9326 31.6518C87.0777 31.7124 87.2095 31.8011 87.3205 31.913C87.4316 32.0249 87.5197 32.1577 87.5798 32.3039C87.6399 32.4501 87.6708 32.6068 87.6708 32.7651C87.6708 32.9233 87.6399 33.08 87.5798 33.2262C87.5197 33.3724 87.4316 33.5052 87.3205 33.6171C87.2095 33.729 87.0777 33.8178 86.9326 33.8783C86.7875 33.9389 86.632 33.9701 86.4749 33.9701C86.266 33.9703 86.0606 33.9151 85.8795 33.8101C85.7417 33.7322 85.6207 33.6275 85.5235 33.502C85.4263 33.3765 85.3549 33.2329 85.3133 33.0793C85.2717 32.9257 85.2609 32.7654 85.2814 32.6076C85.302 32.4498 85.3534 32.2976 85.4329 32.1601C85.5391 31.9767 85.6913 31.8248 85.8742 31.7195C86.0571 31.6142 86.2643 31.5592 86.4749 31.5601ZM86.4749 31.7601C86.2456 31.7591 86.023 31.8382 85.845 31.984C85.667 32.1297 85.5446 32.3331 85.4986 32.5595C85.4526 32.7859 85.4858 33.0213 85.5926 33.2258C85.6994 33.4304 85.8733 33.5913 86.0845 33.6812C86.2958 33.7712 86.5315 33.7846 86.7515 33.7192C86.9715 33.6539 87.1622 33.5138 87.2912 33.3227C87.4203 33.1317 87.4797 32.9015 87.4593 32.6713C87.439 32.4411 87.3401 32.2251 87.1796 32.0601C87.0883 31.9633 86.9781 31.8867 86.856 31.8351C86.7338 31.7835 86.6024 31.7579 86.47 31.7601H86.4749ZM86.202 33.4101H85.9936V32.1101H86.4402C86.553 32.1082 86.6653 32.1251 86.7727 32.1601C86.8366 32.1826 86.8921 32.2245 86.9314 32.2801C86.9767 32.3473 86.9966 32.4286 86.9875 32.5093C86.9784 32.59 86.9409 32.6648 86.8818 32.7201C86.8109 32.7893 86.7174 32.8302 86.6188 32.8351C86.6718 32.8579 86.7192 32.892 86.7578 32.9351C86.8194 33.0064 86.8743 33.0834 86.9215 33.1651L87.0704 33.4151H86.8223L86.7082 33.2151C86.6559 33.1094 86.5891 33.0118 86.5097 32.9251C86.4585 32.8814 86.3931 32.8583 86.3261 32.8601H86.202V33.4101ZM86.202 32.2901V32.6801H86.4501C86.5358 32.687 86.6218 32.6697 86.6982 32.6301C86.7219 32.6134 86.7408 32.5908 86.753 32.5645C86.7652 32.5381 86.7703 32.509 86.7677 32.4801C86.7703 32.4506 86.7647 32.4209 86.7515 32.3945C86.7384 32.368 86.7182 32.3457 86.6933 32.3301C86.6144 32.2992 86.5294 32.2872 86.4452 32.2951L86.202 32.2901Z" fill="#8D734A"/>
</g>
<defs>
<clipPath id="clip0_309_5355">
<rect width="131" height="39" fill="white"/>
</clipPath>
</defs>
</svg>
