<svg width="85" height="25" viewBox="0 0 85 25" fill="none" xmlns="http://www.w3.org/2000/svg">
<g clip-path="url(#clip0_309_6005)">
<path d="M11.8229 7.66664V12.8397C11.8229 14.1218 12.1835 15.125 12.895 15.8525C13.2546 16.2174 13.6864 16.5038 14.1631 16.6936C14.6397 16.8834 15.1509 16.9725 15.664 16.9551C16.1789 16.9727 16.6919 16.8829 17.1699 16.6913C17.6478 16.4998 18.0803 16.2108 18.4394 15.8429C19.1477 15.1057 19.5115 14.0384 19.5115 12.6699V7.66985H18.8998V12.7147C18.8998 13.8846 18.5971 14.7981 17.9983 15.4391C17.7004 15.7556 17.3381 16.0051 16.9355 16.171C16.5329 16.3368 16.0994 16.4151 15.664 16.4006C15.2301 16.4137 14.7985 16.3347 14.3977 16.1689C13.9969 16.0032 13.6361 15.7544 13.3394 15.4391C12.7437 14.7981 12.4378 13.9199 12.4378 12.8045V7.66664H11.8229ZM36.2217 16.8365H36.8399V7.66985H36.196L32.6157 12.0032L29.0225 7.66344H28.3786V16.8301H28.9903V8.49677L32.6028 12.9006L36.2217 8.5128V16.8461V16.8365ZM55.424 16.8365H58.4376V16.3461H56.0422V12.4679H58.0835V11.9775H56.0422V8.15703H58.2541V7.66664H55.4305V16.8333L55.424 16.8365ZM81.832 16.8365H84.8392V16.3461H82.4437V12.4679H84.485V11.9775H82.4437V8.15703H84.6556V7.66664H81.832V16.8333V16.8365ZM73.7763 16.8365H74.4975L72.4465 13.7147C71.9378 12.9263 71.5289 12.4583 71.2327 12.3173L71.1136 12.2596L71.2359 12.2147C72.3886 11.7916 72.9746 11.0481 72.9746 10.0032C72.987 9.67884 72.9236 9.35607 72.7895 9.06021C72.6555 8.76435 72.4543 8.50347 72.2019 8.29805C71.6867 7.88139 70.914 7.65703 69.9481 7.65703H67.6138V16.8237H68.2255V12.3846H69.5359C70.0109 12.3536 70.4842 12.4652 70.8947 12.7051C71.2166 12.9199 71.6287 13.4615 72.1825 14.3077L73.7924 16.8269L73.7763 16.8365ZM69.8161 11.9006H68.2062V8.15382H69.7839C70.4401 8.11625 71.0909 8.2917 71.6384 8.65382C71.8498 8.81446 72.0189 9.02381 72.1311 9.26389C72.2432 9.50396 72.2952 9.76757 72.2823 10.032C72.2954 10.2979 72.2436 10.563 72.1315 10.8046C72.0194 11.0463 71.8502 11.2574 71.6384 11.4199C71.0952 11.7739 70.4511 11.9427 69.8032 11.9006H69.8161ZM0.161133 16.8365H3.16833V16.3461H0.772875V7.66664H0.161133V16.8333V16.8365ZM46.1384 0.214722L45.6748 16.9711H46.5763L46.1352 0.214722M31.6176 20.5929H33.0536C33.3551 20.5702 33.6582 20.6082 33.9447 20.7046C34.2313 20.8009 34.4954 20.9537 34.7214 21.1538C35.0897 21.5573 35.2938 22.083 35.2938 22.6282C35.2938 23.1734 35.0897 23.699 34.7214 24.1025C34.5065 24.3026 34.253 24.457 33.9762 24.5561C33.6994 24.6553 33.4051 24.6973 33.1115 24.6795H31.6144L31.6176 20.5929ZM31.9395 20.8557V24.4231H33.0986C33.5888 24.4402 34.0663 24.2653 34.4284 23.9359C34.6035 23.7722 34.7415 23.5731 34.8331 23.352C34.9248 23.1309 34.9679 22.8929 34.9596 22.6538C34.9667 22.4155 34.9236 22.1784 34.8332 21.9576C34.7429 21.7368 34.6072 21.5373 34.4348 21.3718C34.2526 21.2034 34.0387 21.0726 33.8056 20.9868C33.5724 20.901 33.3245 20.8619 33.0761 20.8718L31.9395 20.8557ZM38.746 20.5865V20.8493H37.7801V22.4936H38.6816V22.7564H37.7801V24.4231H38.8426V24.6795H37.4452V20.5865H38.746ZM50.163 20.5929V24.6795H49.8411V20.5929H50.163ZM53.7691 20.5865V20.8493H52.8032V22.4936H53.7111V22.7564H52.8096V24.4231H53.8657V24.6795H52.4876V20.5865H53.7691ZM46.132 24.6891L44.5736 20.5929H44.2517L45.8132 24.6891H46.1287" fill="#8D734A"/>
<path d="M46.422 24.6892L47.9771 20.593H47.6616L46.1064 24.6892H46.422ZM56.0489 5.49365H56.564L57.2273 6.85263H57.0148L56.0489 5.49365ZM56.11 20.2308C56.2119 20.2308 56.3128 20.2508 56.407 20.2896C56.5011 20.3284 56.5867 20.3853 56.6587 20.4571C56.7308 20.5288 56.7879 20.614 56.8269 20.7077C56.8659 20.8014 56.886 20.9018 56.886 21.0033C56.886 21.1047 56.8659 21.2052 56.8269 21.2989C56.7879 21.3926 56.7308 21.4777 56.6587 21.5495C56.5867 21.6212 56.5011 21.6781 56.407 21.7169C56.3128 21.7557 56.2119 21.7757 56.11 21.7757C55.9744 21.7759 55.8412 21.7405 55.7237 21.6731C55.6343 21.6232 55.5558 21.5561 55.4927 21.4757C55.4296 21.3952 55.3833 21.3031 55.3563 21.2047C55.3293 21.1063 55.3223 21.0035 55.3356 20.9023C55.349 20.8011 55.3824 20.7036 55.4339 20.6154C55.5028 20.4979 55.6016 20.4005 55.7202 20.333C55.8389 20.2655 55.9734 20.2303 56.11 20.2308ZM56.11 20.359C55.9612 20.3584 55.8168 20.4091 55.7013 20.5026C55.5858 20.596 55.5064 20.7263 55.4765 20.8715C55.4467 21.0166 55.4682 21.1675 55.5375 21.2986C55.6069 21.4297 55.7197 21.5329 55.8567 21.5905C55.9938 21.6482 56.1467 21.6568 56.2895 21.6149C56.4322 21.573 56.556 21.4832 56.6397 21.3607C56.7234 21.2383 56.762 21.0907 56.7488 20.9431C56.7356 20.7956 56.6714 20.6571 56.5672 20.5513C56.508 20.4893 56.4365 20.4402 56.3573 20.4071C56.278 20.374 56.1928 20.3577 56.1068 20.359H56.11ZM55.933 21.4167H55.7977V20.5834H56.0875C56.1607 20.5822 56.2336 20.593 56.3032 20.6154C56.3447 20.6299 56.3807 20.6567 56.4063 20.6924C56.4356 20.7355 56.4485 20.7876 56.4426 20.8393C56.4367 20.8911 56.4124 20.939 56.3741 20.9744C56.328 21.0188 56.2674 21.045 56.2034 21.0481C56.2378 21.0627 56.2685 21.0846 56.2936 21.1122C56.3336 21.1579 56.3691 21.2073 56.3998 21.2597L56.4964 21.4199H56.3354L56.2614 21.2917C56.2275 21.224 56.1841 21.1614 56.1326 21.1058C56.0994 21.0778 56.057 21.063 56.0135 21.0642H55.933V21.4167ZM55.933 20.6988V20.9488H56.0939C56.1496 20.9532 56.2053 20.9421 56.2549 20.9167C56.2703 20.9061 56.2825 20.8916 56.2905 20.8747C56.2984 20.8578 56.3017 20.8391 56.3 20.8206C56.3017 20.8017 56.2981 20.7827 56.2895 20.7657C56.281 20.7487 56.2679 20.7344 56.2517 20.7244C56.2005 20.7046 56.1454 20.6969 56.0907 20.702L55.933 20.6988Z" fill="#8D734A"/>
</g>
<defs>
<clipPath id="clip0_309_6005">
<rect width="85" height="25" fill="white"/>
</clipPath>
</defs>
</svg>
