<svg width="91" height="8" viewBox="0 0 91 8" fill="none" xmlns="http://www.w3.org/2000/svg">
<g clip-path="url(#clip0_309_6027)">
<path d="M10.5608 7.64266H9.28383V1.58639H9.25829L5.26765 6.41478L1.30574 1.58639H1.27701V7.64266H0V0.235419H1.59626L5.26765 4.71146L8.97416 0.235419H10.5608V7.64266ZM26.8427 3.92827C26.8427 5.1428 26.326 6.125 25.2927 6.87485C24.3882 7.53033 23.2633 7.85756 21.9182 7.85653C20.5731 7.85551 19.4392 7.52469 18.5166 6.86408C17.4843 6.11525 16.9682 5.13665 16.9682 3.92827C16.9682 2.74143 17.4918 1.76693 18.5389 1.00476C19.4594 0.334921 20.5853 0 21.9166 0C23.2479 0 24.3695 0.334408 25.2815 1.00322C26.3202 1.77154 26.84 2.74604 26.8411 3.92673L26.8427 3.92827ZM25.5162 3.92827C25.5225 3.51288 25.421 3.10256 25.2208 2.73466C25.0206 2.36676 24.7282 2.05295 24.3701 1.82181C23.7124 1.35712 22.8951 1.12529 21.9182 1.12632C20.854 1.12632 19.9835 1.39046 19.3067 1.91874C18.9878 2.15472 18.7306 2.45936 18.5557 2.8083C18.3808 3.15723 18.2931 3.54078 18.2995 3.92827C18.2876 4.3176 18.3707 4.70418 18.542 5.05694C18.7134 5.40969 18.9682 5.71877 19.286 5.95933C19.9436 6.47223 20.8211 6.72868 21.9182 6.72868C23.0154 6.72868 23.8875 6.47223 24.5345 5.95933C24.8506 5.71773 25.1039 5.40829 25.274 5.05567C25.4442 4.70305 25.5266 4.317 25.5146 3.92827H25.5162ZM40.7987 1.3402H37.1274V7.64881H35.8503V1.3402H32.179V0.235419H40.7987V1.3402ZM47.8127 7.64881H46.5357V0.235419H47.8127V7.64881ZM63.1368 0.241574L58.9993 7.64266H57.5355L53.3964 0.235419H54.8187L58.2634 6.40709L61.7161 0.235419L63.1368 0.241574ZM76.764 7.64881H68.7221V0.235419H76.4687V1.3402H69.9943V3.24355H74.4957V4.34833H69.9943V6.53788H76.7656L76.764 7.64881ZM89.6714 1.98029C88.5997 1.43655 87.4089 1.14696 86.1979 1.13555C85.4126 1.13555 84.8108 1.22428 84.3925 1.40174C83.9743 1.57921 83.7657 1.82488 83.7668 2.13877C83.7668 2.46498 83.9903 2.70501 84.4356 2.85426C84.9414 2.99215 85.4633 3.06713 85.9888 3.07737C87.053 3.1461 87.7537 3.20098 88.0911 3.24201C89.0488 3.36511 89.7597 3.59335 90.2237 3.92673C90.4507 4.09151 90.6324 4.3074 90.7529 4.55551C90.8734 4.80362 90.929 5.0764 90.9148 5.35001C90.9148 6.13269 90.5536 6.73945 89.831 7.17028C89.1084 7.60111 88.0719 7.81653 86.7215 7.81653C84.7613 7.81653 83.2368 7.40057 82.1482 6.56865L82.8458 5.67775C84.0118 6.37658 85.358 6.74553 86.7311 6.74252C87.6303 6.74252 88.3273 6.62302 88.8222 6.38401C89.2957 6.15116 89.5325 5.83419 89.5325 5.4331C89.5325 4.96226 89.2212 4.64837 88.5987 4.49143C88.273 4.40936 87.3956 4.32422 85.9664 4.236C84.7011 4.15292 83.8131 3.98879 83.3023 3.74362C82.7085 3.45948 82.4116 2.9789 82.4116 2.30188C82.4116 1.60639 82.7495 1.05759 83.4252 0.655481C84.101 0.25337 85.055 0.0518025 86.2873 0.0507767C87.9431 0.0507767 89.3298 0.415958 90.4471 1.14632L89.6714 1.98029Z" fill="#141414"/>
</g>
<defs>
<clipPath id="clip0_309_6027">
<rect width="91" height="8" fill="white"/>
</clipPath>
</defs>
</svg>
