<svg width="64" height="64" viewBox="0 0 64 64" fill="none" xmlns="http://www.w3.org/2000/svg">
<g clip-path="url(#clip0_796_10010)">
<path d="M32.3447 64.3286C14.6991 64.3286 0.344727 49.9734 0.344727 32.3286C0.344727 14.6838 14.6991 0.328613 32.3447 0.328613C49.9903 0.328613 64.3447 14.6838 64.3447 32.3286C64.3447 49.9734 49.9895 64.3286 32.3447 64.3286ZM32.3447 2.72861C16.0231 2.72861 2.74473 16.007 2.74473 32.3286C2.74473 48.6502 16.0231 61.9286 32.3447 61.9286C48.6663 61.9286 61.9447 48.6502 61.9447 32.3286C61.9447 16.007 48.6655 2.72861 32.3447 2.72861Z" fill="#141414"/>
<path d="M49.2576 43.5616L41.4001 30.4976V15.8688C41.4001 14.868 40.7584 14.0224 39.8673 13.7H39.9216C41.4025 13.7 42.6064 12.4952 42.6064 11.0152C42.6064 9.53519 41.4017 8.32959 39.9216 8.32959H26.3681C24.8873 8.32959 23.6833 9.53439 23.6833 11.0152C23.6833 12.496 24.8881 13.7 26.3681 13.7H26.4225C25.5321 14.0224 24.8897 14.868 24.8897 15.8688V30.4976L17.0321 43.5616C15.5281 46.0608 15.4865 49.0712 16.9225 51.6152C18.3593 54.1544 20.9601 55.6712 23.8785 55.6712H42.4104C45.3281 55.6712 47.9288 54.1552 49.3672 51.6144C50.8024 49.0712 50.7617 46.0608 49.2576 43.5616ZM27.0729 35.8488L29.1873 32.3352L29.1897 32.3312C29.4049 31.9704 29.5184 31.5592 29.5184 31.1416V18.1832H36.7721V31.1416C36.7721 31.5592 36.8865 31.9704 37.1033 32.3352L39.2176 35.8488H27.0729Z" fill="white"/>
<path d="M48.2298 44.18L40.2002 30.8304V15.8688C40.2002 15.2536 39.701 14.7544 39.0858 14.7544H27.2034C26.5882 14.7544 26.089 15.2536 26.089 15.8688V30.8312L18.0594 44.1808C16.7802 46.3072 16.7466 48.864 17.9666 51.0248C19.1882 53.1832 21.3978 54.472 23.8778 54.472H42.4098C44.8906 54.472 47.0994 53.184 48.3218 51.0248C49.5418 48.8632 49.5082 46.3072 48.229 44.1808L48.2298 44.18ZM28.1586 31.716C28.2626 31.5416 28.3178 31.3448 28.3178 31.1416V16.9824H37.9722V31.1408C37.9722 31.344 38.0274 31.5416 38.1314 31.7152L41.3394 37.048H24.9498L28.1578 31.7152L28.1586 31.716Z" fill="#141414"/>
<path d="M26.3684 12.5H39.922C40.7428 12.5 41.4076 11.836 41.4076 11.0144C41.4076 10.1928 40.7436 9.52881 39.922 9.52881H26.3684C25.5476 9.52881 24.8828 10.1936 24.8828 11.0144C24.8828 11.8352 25.5476 12.5 26.3684 12.5Z" fill="#141414"/>
</g>
<defs>
<clipPath id="clip0_796_10010">
<rect width="64" height="64" fill="white"/>
</clipPath>
</defs>
</svg>
