<svg width="48" height="48" viewBox="0 0 48 48" fill="none" xmlns="http://www.w3.org/2000/svg">
<g clip-path="url(#clip0_796_11243)">
<path d="M24.2585 48.2466C11.0243 48.2466 0.258545 37.4802 0.258545 24.2466C0.258545 11.013 11.0243 0.246582 24.2585 0.246582C37.4927 0.246582 48.2585 11.013 48.2585 24.2466C48.2585 37.4802 37.4921 48.2466 24.2585 48.2466ZM24.2585 2.04658C12.0173 2.04658 2.05854 12.0054 2.05854 24.2466C2.05854 36.4878 12.0173 46.4466 24.2585 46.4466C36.4997 46.4466 46.4585 36.4878 46.4585 24.2466C46.4585 12.0054 36.4991 2.04658 24.2585 2.04658Z" fill="#141414"/>
<path d="M36.9432 32.6711L31.05 22.8731V11.9015C31.05 11.1509 30.5688 10.5167 29.9004 10.2749H29.9412C31.0518 10.2749 31.9548 9.37127 31.9548 8.26127C31.9548 7.15127 31.0512 6.24707 29.9412 6.24707H19.776C18.6654 6.24707 17.7624 7.15067 17.7624 8.26127C17.7624 9.37187 18.666 10.2749 19.776 10.2749H19.8168C19.149 10.5167 18.6672 11.1509 18.6672 11.9015V22.8731L12.774 32.6711C11.646 34.5455 11.6148 36.8033 12.6918 38.7113C13.7694 40.6157 15.72 41.7533 17.9088 41.7533H31.8078C33.996 41.7533 35.9466 40.6163 37.0254 38.7107C38.1018 36.8033 38.0712 34.5455 36.9432 32.6711ZM20.3046 26.8865L21.8904 24.2513L21.8922 24.2483C22.0536 23.9777 22.1388 23.6693 22.1388 23.3561V13.6373H27.579V23.3561C27.579 23.6693 27.6648 23.9777 27.8274 24.2513L29.4132 26.8865H20.3046Z" fill="white"/>
<path d="M36.1721 33.1351L30.1499 23.1229V11.9017C30.1499 11.4403 29.7755 11.0659 29.3141 11.0659H20.4023C19.9409 11.0659 19.5665 11.4403 19.5665 11.9017V23.1235L13.5443 33.1357C12.5849 34.7305 12.5597 36.6481 13.4747 38.2687C14.3909 39.8875 16.0481 40.8541 17.9081 40.8541H31.8071C33.6677 40.8541 35.3243 39.8881 36.2411 38.2687C37.1561 36.6475 37.1309 34.7305 36.1715 33.1357L36.1721 33.1351ZM21.1187 23.7871C21.1967 23.6563 21.2381 23.5087 21.2381 23.3563V12.7369H28.4789V23.3557C28.4789 23.5081 28.5203 23.6563 28.5983 23.7865L31.0043 27.7861H18.7121L21.1181 23.7865L21.1187 23.7871Z" fill="#141414"/>
<path d="M19.7758 9.37488H29.941C30.5566 9.37488 31.0552 8.87688 31.0552 8.26068C31.0552 7.64448 30.5572 7.14648 29.941 7.14648H19.7758C19.1602 7.14648 18.6616 7.64508 18.6616 8.26068C18.6616 8.87628 19.1602 9.37488 19.7758 9.37488Z" fill="#141414"/>
</g>
<defs>
<clipPath id="clip0_796_11243">
<rect width="48" height="48" fill="white"/>
</clipPath>
</defs>
</svg>
