<svg width="169" height="63" viewBox="0 0 169 63" fill="none" xmlns="http://www.w3.org/2000/svg">
<path d="M156.219 14.7293H155.116V17.576H154.236V14.7293H153.156V14.0001H156.237L156.219 14.7293ZM161.031 17.576H160.198V14.8926L159.2 17.576H158.825L157.804 14.9218V17.5818H156.941V14.0001H158.191L159.024 16.1701L159.799 14.0001H161.031V17.576ZM30.1382 17.5001C32.5246 17.5001 34.4278 18.1418 35.8479 19.4251C36.5549 20.0836 37.1099 20.8866 37.4746 21.7789C37.8393 22.6711 38.005 23.6314 37.9604 24.5935C37.9604 26.849 37.2249 28.599 35.754 29.8435C34.2831 31.0879 32.1647 31.6985 29.3989 31.6751H16.3424V39.9001H11.9414V17.5001H30.1382ZM29.4752 27.7493C32.1353 27.7493 33.4654 26.7304 33.4654 24.6926C33.4654 22.5343 32.0493 21.4551 29.217 21.4551H16.3072V27.7551L29.4752 27.7493ZM69.0493 39.9001H64.0145L58.0937 31.6751H46.9444V39.9001H42.5433V17.5001H60.7343C63.1285 17.5001 65.0317 18.1418 66.4439 19.4251C67.153 20.0825 67.7102 20.8851 68.077 21.7774C68.4437 22.6697 68.6113 23.6305 68.5681 24.5935C68.5681 28.3035 66.7021 30.5726 62.97 31.401L69.0493 39.9001ZM60.0888 27.7551C62.749 27.7551 64.0791 26.7362 64.0791 24.6985C64.0791 22.5401 62.661 21.461 59.8247 21.461H46.9444V27.761L60.0888 27.7551ZM79.6646 39.9001H75.2636V17.5001H79.6646V39.9001ZM118.945 39.9001H114.544L114.427 21.4901L103.131 36.7501L91.8643 21.3501L91.747 21.4901V39.9001H87.3459V17.5001H93.9475L103.125 30.1585L112.338 17.5001H118.945V39.9001ZM150.868 39.9001H126.633V17.5001H150.023V21.4318H131.022V26.2735H144.237V30.2051H131.022V35.951H150.868V39.9001ZM18.807 48.5918H17.8975L17.3107 47.466H13.8955L13.3087 48.5918H12.3991L15.0749 43.5576H16.1312L18.807 48.5918ZM16.8999 46.7135L15.6089 44.2751L14.3062 46.7135H16.8999ZM24.8629 48.5918H23.613L20.6789 45.0334V48.5918H19.8574V44.3335H21.1249L24.0589 47.9035V44.3335H24.8981L24.8629 48.5918ZM30.9246 45.0685H28.8707V48.5685H28.0316V45.0685H25.9778V44.3335H30.9304L30.9246 45.0685ZM32.861 48.5918H32.0395V44.3335H32.861V48.5918ZM37.1095 46.7485H34.2341V45.9901H37.1095V46.7485ZM43.5526 48.5918H42.6313L42.1384 47.676H39.2572L38.7291 48.5918H37.8254L40.1726 44.316H41.2171L43.5526 48.5918ZM41.7159 46.9235L40.689 45.0276L39.6621 46.9176L41.7159 46.9235ZM49.9547 46.2585V46.3751C49.9662 46.6963 49.9035 47.0159 49.7712 47.3092C49.6389 47.6025 49.4407 47.8616 49.1918 48.0668C48.6115 48.5189 47.8861 48.7469 47.1497 48.7085C46.4614 48.727 45.7858 48.5223 45.225 48.1251C44.9479 47.9353 44.7212 47.6813 44.5647 47.3851C44.4082 47.0889 44.3264 46.7593 44.3264 46.4247C44.3264 46.0901 44.4082 45.7605 44.5647 45.4643C44.7212 45.1681 44.9479 44.9141 45.225 44.7243C45.8014 44.3228 46.4933 44.1181 47.1967 44.141C47.6363 44.1312 48.073 44.2146 48.4777 44.3856C48.8824 44.5565 49.2459 44.8112 49.5439 45.1326L48.7517 45.5293C48.5376 45.3269 48.2853 45.1686 48.0093 45.0634C47.7334 44.9583 47.4393 44.9085 47.1439 44.9168C46.6385 44.896 46.1413 45.0484 45.7355 45.3484C45.5654 45.4762 45.4274 45.6415 45.3323 45.8313C45.2373 46.0211 45.1878 46.2302 45.1878 46.4422C45.1878 46.6542 45.2373 46.8633 45.3323 47.0531C45.4274 47.2429 45.5654 47.4082 45.7355 47.5359C46.1465 47.8336 46.6478 47.9819 47.1556 47.956C47.5128 47.9932 47.8728 47.9209 48.1875 47.7489C48.5022 47.5768 48.7564 47.3132 48.916 46.9935H46.9444V46.2585H49.9547ZM52.2256 48.5918H51.363V44.3335H52.2256V48.5918ZM58.8917 48.5918H57.6418L54.7078 45.0334V48.5918H53.8687V44.3335H55.1244L58.0585 47.9035V44.3335H58.8976L58.8917 48.5918ZM65.9334 46.2585V46.3751C65.9449 46.6963 65.8822 47.0159 65.7499 47.3092C65.6177 47.6025 65.4194 47.8616 65.1705 48.0668C64.5902 48.5189 63.8648 48.7469 63.1285 48.7085C62.4402 48.727 61.7645 48.5223 61.2037 48.1251C60.9266 47.9353 60.7 47.6813 60.5434 47.3851C60.3869 47.0889 60.3051 46.7593 60.3051 46.4247C60.3051 46.0901 60.3869 45.7605 60.5434 45.4643C60.7 45.1681 60.9266 44.9141 61.2037 44.7243C61.7801 44.3228 62.472 44.1181 63.1754 44.141C63.615 44.1312 64.0517 44.2146 64.4564 44.3856C64.8611 44.5565 65.2246 44.8112 65.5226 45.1326L64.7304 45.5293C64.517 45.3276 64.2656 45.1697 63.9907 45.0646C63.7159 44.9595 63.4229 44.9093 63.1285 44.9168C62.6231 44.896 62.1259 45.0484 61.7201 45.3484C61.551 45.4769 61.414 45.6425 61.3196 45.8322C61.2253 46.0219 61.1762 46.2306 61.1762 46.4422C61.1762 46.6538 61.2253 46.8626 61.3196 47.0522C61.414 47.2419 61.551 47.4075 61.7201 47.5359C62.1311 47.8336 62.6324 47.9819 63.1402 47.956C63.4973 47.9932 63.8574 47.9209 64.1721 47.7489C64.4868 47.5768 64.741 47.3132 64.9006 46.9935H62.9641V46.2585H65.9334ZM74.6592 48.5918H73.4093L70.4753 45.0334V48.5918H69.6361V44.3335H70.886L73.8201 47.9035V44.3335H74.6592V48.5918ZM81.2842 47.1918C81.2799 47.4184 81.2145 47.6398 81.0947 47.8327C80.975 48.0256 80.8054 48.183 80.6035 48.2884C80.0386 48.5688 79.4158 48.7148 78.7844 48.7148C78.153 48.7148 77.5303 48.5688 76.9653 48.2884C76.7622 48.1815 76.5917 48.0222 76.4719 47.8272C76.3522 47.6321 76.2875 47.4086 76.2846 47.1801V44.3335H77.1238V47.0168C77.1238 47.6468 77.6793 47.9618 78.7903 47.9618C79.9013 47.9618 80.4529 47.6468 80.4451 47.0168V44.3335H81.2783L81.2842 47.1918ZM87.299 45.0685H85.2452V48.5685H84.406V45.0685H82.3522V44.3335H87.3048L87.299 45.0685ZM93.478 48.5918H92.5157L91.389 47.0168H89.253V48.5918H88.4139V44.3335H91.8878C92.2836 44.3134 92.6721 44.4449 92.9734 44.7009C93.1104 44.8265 93.2181 44.9803 93.2891 45.1516C93.36 45.3229 93.3925 45.5076 93.3841 45.6926C93.4046 46.0038 93.3049 46.311 93.1053 46.5516C92.9058 46.7923 92.6215 46.9482 92.3103 46.9876L93.478 48.5918ZM91.7646 46.2585C92.2751 46.2585 92.5274 46.066 92.5274 45.6751C92.5274 45.2843 92.2575 45.0568 91.7059 45.0568H89.253V46.2585H91.7646ZM99.9505 48.5918H99.0233L98.5304 47.676H95.6492L95.1563 48.5918H94.2291L96.5764 44.316H97.6209L99.9505 48.5918ZM98.1138 46.9235L97.0928 45.0276L96.0658 46.9176L98.1138 46.9235ZM106.124 45.3426L105.361 45.6051C105.129 45.3791 104.853 45.2022 104.551 45.0849C104.248 44.9676 103.925 44.9124 103.6 44.9226C103.077 44.8979 102.561 45.0478 102.133 45.3484C101.963 45.4762 101.825 45.6415 101.73 45.8313C101.635 46.0211 101.586 46.2302 101.586 46.4422C101.586 46.6542 101.635 46.8633 101.73 47.0531C101.825 47.2429 101.963 47.4082 102.133 47.5359C102.563 47.8304 103.079 47.9741 103.6 47.9443C103.926 47.9572 104.25 47.9027 104.553 47.7842C104.857 47.6657 105.132 47.4858 105.361 47.256L106.088 47.6409C105.5 48.239 104.717 48.61 103.878 48.688C103.04 48.7659 102.202 48.5458 101.511 48.0668C101.254 47.8679 101.047 47.6114 100.908 47.3182C100.769 47.0249 100.702 46.7031 100.711 46.3791C100.721 46.055 100.808 45.7378 100.964 45.4533C101.12 45.1688 101.342 44.925 101.611 44.7418C102.307 44.2823 103.146 44.0883 103.974 44.1955C104.802 44.3027 105.564 44.7039 106.118 45.3251L106.124 45.3426ZM112.138 48.5918H107.503V44.3335H111.962V45.0918H108.336V46.0076H110.859V46.7659H108.336V47.8335H112.127L112.138 48.5918ZM118.37 47.1918C118.366 47.4177 118.301 47.6384 118.183 47.8311C118.064 48.0239 117.896 48.1817 117.695 48.2884C117.131 48.5688 116.508 48.7148 115.876 48.7148C115.245 48.7148 114.622 48.5688 114.057 48.2884C113.853 48.1823 113.681 48.0233 113.561 47.8282C113.44 47.6331 113.374 47.4092 113.371 47.1801V44.3335H114.21V47.0168C114.21 47.6468 114.765 47.9618 115.876 47.9618C116.987 47.9618 117.539 47.6468 117.531 47.0168V44.3335H118.364L118.37 47.1918ZM124.403 45.0685H122.349V48.5685H121.469V45.0685H119.415V44.3335H124.403V45.0685ZM126.339 48.5918H125.494V44.3335H126.333L126.339 48.5918ZM133.146 45.3426L132.383 45.6051C132.152 45.3786 131.876 45.2013 131.574 45.0839C131.271 44.9666 130.947 44.9117 130.623 44.9226C130.1 44.8979 129.583 45.0478 129.156 45.3484C128.986 45.4762 128.848 45.6415 128.753 45.8313C128.658 46.0211 128.608 46.2302 128.608 46.4422C128.608 46.6542 128.658 46.8633 128.753 47.0531C128.848 47.2429 128.986 47.4082 129.156 47.5359C129.59 47.8342 130.113 47.9781 130.64 47.9443C130.966 47.9572 131.29 47.9027 131.593 47.7842C131.897 47.6657 132.172 47.4858 132.401 47.256L133.123 47.6409C132.534 48.239 131.751 48.61 130.913 48.688C130.074 48.7659 129.236 48.5458 128.546 48.0668C128.288 47.8675 128.082 47.6106 127.943 47.3171C127.805 47.0236 127.738 46.7017 127.748 46.3776C127.759 46.0535 127.846 45.7365 128.003 45.4522C128.16 45.168 128.382 44.9245 128.651 44.7418C129.347 44.2823 130.186 44.0883 131.014 44.1955C131.842 44.3027 132.604 44.7039 133.158 45.3251L133.146 45.3426ZM139.619 48.5918H138.697L138.198 47.676H135.323L134.818 48.5918H133.897L136.244 44.316H137.289L139.619 48.5918ZM137.782 46.9235L136.755 45.0276L135.728 46.9176L137.782 46.9235ZM144.806 48.5918H140.64V44.3335H141.485V47.8335H144.818L144.806 48.5918ZM149.811 45.3718C149.252 45.0736 148.627 44.9173 147.992 44.9168C147.038 44.9168 146.559 45.086 146.555 45.4243C146.555 45.6226 146.731 45.751 147.094 45.8151L148.561 45.9493C149.083 45.97 149.594 46.0971 150.064 46.3226C150.223 46.4151 150.353 46.5496 150.44 46.7113C150.527 46.8729 150.568 47.0554 150.557 47.2385C150.563 47.4548 150.509 47.6687 150.4 47.8562C150.291 48.0437 150.132 48.1974 149.94 48.3001C149.386 48.5802 148.766 48.7072 148.145 48.6676C147.216 48.7156 146.296 48.4594 145.528 47.9384L145.985 47.3551C146.627 47.7813 147.386 47.9975 148.157 47.9734C148.543 47.9909 148.929 47.9273 149.289 47.7868C149.559 47.6701 149.7 47.4951 149.7 47.2968C149.7 47.0985 149.524 46.9118 149.201 46.8185C148.924 46.755 148.641 46.7198 148.356 46.7135L147.241 46.6668C146.828 46.6518 146.425 46.5356 146.068 46.3284C145.943 46.2435 145.842 46.128 145.775 45.9931C145.709 45.8583 145.678 45.7086 145.686 45.5585C145.685 45.359 145.739 45.1631 145.843 44.9923C145.946 44.8215 146.095 44.6823 146.273 44.5901C146.794 44.3223 147.377 44.1975 147.963 44.2285C148.791 44.1927 149.61 44.4106 150.31 44.8526L149.811 45.3718Z" fill="#141414"/>
</svg>
