<svg width="169" height="63" viewBox="0 0 169 63" fill="none" xmlns="http://www.w3.org/2000/svg">
<path d="M156.219 14.7292H155.116V17.5758H154.236V14.7292H153.156V14H156.237L156.219 14.7292ZM161.031 17.5758H160.198V14.8925L159.2 17.5758H158.825L157.804 14.9217V17.5817H156.941V14H158.191L159.024 16.17L159.799 14H161.031V17.5758ZM30.1382 17.5C32.5246 17.5 34.4278 18.1417 35.8479 19.425C36.5549 20.0835 37.1099 20.8865 37.4746 21.7788C37.8393 22.671 38.005 23.6313 37.9604 24.5933C37.9604 26.8489 37.2249 28.5989 35.754 29.8433C34.2831 31.0878 32.1647 31.6983 29.3989 31.675H16.3424V39.9H11.9414V17.5H30.1382ZM29.4752 27.7492C32.1353 27.7492 33.4654 26.7303 33.4654 24.6925C33.4654 22.5342 32.0493 21.455 29.217 21.455H16.3072V27.755L29.4752 27.7492ZM69.0493 39.9H64.0145L58.0937 31.675H46.9444V39.9H42.5433V17.5H60.7343C63.1285 17.5 65.0317 18.1417 66.4439 19.425C67.153 20.0824 67.7102 20.885 68.077 21.7773C68.4437 22.6696 68.6113 23.6304 68.5681 24.5933C68.5681 28.3033 66.7021 30.5725 62.97 31.4008L69.0493 39.9ZM60.0888 27.755C62.749 27.755 64.0791 26.7361 64.0791 24.6983C64.0791 22.54 62.661 21.4608 59.8247 21.4608H46.9444V27.7608L60.0888 27.755ZM79.6646 39.9H75.2636V17.5H79.6646V39.9ZM118.945 39.9H114.544L114.427 21.49L103.131 36.75L91.8643 21.35L91.747 21.49V39.9H87.3459V17.5H93.9475L103.125 30.1583L112.338 17.5H118.945V39.9ZM150.868 39.9H126.633V17.5H150.023V21.4317H131.022V26.2733H144.237V30.205H131.022V35.9508H150.868V39.9ZM18.807 48.5917H17.8975L17.3107 47.4658H13.8955L13.3087 48.5917H12.3991L15.0749 43.5575H16.1312L18.807 48.5917ZM16.8999 46.7133L15.6089 44.275L14.3062 46.7133H16.8999ZM24.8629 48.5917H23.613L20.6789 45.0333V48.5917H19.8574V44.3333H21.1249L24.0589 47.9033V44.3333H24.8981L24.8629 48.5917ZM30.9246 45.0683H28.8707V48.5683H28.0316V45.0683H25.9778V44.3333H30.9304L30.9246 45.0683ZM32.861 48.5917H32.0395V44.3333H32.861V48.5917ZM37.1095 46.7483H34.2341V45.99H37.1095V46.7483ZM43.5526 48.5917H42.6313L42.1384 47.6758H39.2572L38.7291 48.5917H37.8254L40.1726 44.3158H41.2171L43.5526 48.5917ZM41.7159 46.9233L40.689 45.0275L39.6621 46.9175L41.7159 46.9233ZM49.9547 46.2583V46.375C49.9662 46.6962 49.9035 47.0158 49.7712 47.309C49.6389 47.6023 49.4407 47.8615 49.1918 48.0667C48.6115 48.5188 47.8861 48.7467 47.1497 48.7083C46.4614 48.7269 45.7858 48.5222 45.225 48.125C44.9479 47.9351 44.7212 47.6812 44.5647 47.385C44.4082 47.0888 44.3264 46.7592 44.3264 46.4246C44.3264 46.09 44.4082 45.7604 44.5647 45.4642C44.7212 45.168 44.9479 44.914 45.225 44.7242C45.8014 44.3227 46.4933 44.118 47.1967 44.1408C47.6363 44.1311 48.073 44.2145 48.4777 44.3854C48.8824 44.5564 49.2459 44.8111 49.5439 45.1325L48.7517 45.5292C48.5376 45.3268 48.2853 45.1684 48.0093 45.0633C47.7334 44.9582 47.4393 44.9084 47.1439 44.9167C46.6385 44.8958 46.1413 45.0482 45.7355 45.3483C45.5654 45.4761 45.4274 45.6414 45.3323 45.8312C45.2373 46.021 45.1878 46.2301 45.1878 46.4421C45.1878 46.6541 45.2373 46.8632 45.3323 47.053C45.4274 47.2427 45.5654 47.408 45.7355 47.5358C46.1465 47.8335 46.6478 47.9818 47.1556 47.9558C47.5128 47.993 47.8728 47.9208 48.1875 47.7487C48.5022 47.5767 48.7564 47.3131 48.916 46.9933H46.9444V46.2583H49.9547ZM52.2256 48.5917H51.363V44.3333H52.2256V48.5917ZM58.8917 48.5917H57.6418L54.7078 45.0333V48.5917H53.8687V44.3333H55.1244L58.0585 47.9033V44.3333H58.8976L58.8917 48.5917ZM65.9334 46.2583V46.375C65.9449 46.6962 65.8822 47.0158 65.7499 47.309C65.6177 47.6023 65.4194 47.8615 65.1705 48.0667C64.5902 48.5188 63.8648 48.7467 63.1285 48.7083C62.4402 48.7269 61.7645 48.5222 61.2037 48.125C60.9266 47.9351 60.7 47.6812 60.5434 47.385C60.3869 47.0888 60.3051 46.7592 60.3051 46.4246C60.3051 46.09 60.3869 45.7604 60.5434 45.4642C60.7 45.168 60.9266 44.914 61.2037 44.7242C61.7801 44.3227 62.472 44.118 63.1754 44.1408C63.615 44.1311 64.0517 44.2145 64.4564 44.3854C64.8611 44.5564 65.2246 44.8111 65.5226 45.1325L64.7304 45.5292C64.517 45.3275 64.2656 45.1695 63.9907 45.0645C63.7159 44.9594 63.4229 44.9091 63.1285 44.9167C62.6231 44.8958 62.1259 45.0482 61.7201 45.3483C61.551 45.4768 61.414 45.6424 61.3196 45.832C61.2253 46.0217 61.1762 46.2305 61.1762 46.4421C61.1762 46.6537 61.2253 46.8624 61.3196 47.0521C61.414 47.2418 61.551 47.4073 61.7201 47.5358C62.1311 47.8335 62.6324 47.9818 63.1402 47.9558C63.4973 47.993 63.8574 47.9208 64.1721 47.7487C64.4868 47.5767 64.741 47.3131 64.9006 46.9933H62.9641V46.2583H65.9334ZM74.6592 48.5917H73.4093L70.4753 45.0333V48.5917H69.6361V44.3333H70.886L73.8201 47.9033V44.3333H74.6592V48.5917ZM81.2842 47.1917C81.2799 47.4183 81.2145 47.6396 81.0947 47.8325C80.975 48.0255 80.8054 48.1829 80.6035 48.2883C80.0386 48.5687 79.4158 48.7147 78.7844 48.7147C78.153 48.7147 77.5303 48.5687 76.9653 48.2883C76.7622 48.1814 76.5917 48.0221 76.4719 47.827C76.3522 47.632 76.2875 47.4085 76.2846 47.18V44.3333H77.1238V47.0167C77.1238 47.6467 77.6793 47.9617 78.7903 47.9617C79.9013 47.9617 80.4529 47.6467 80.4451 47.0167V44.3333H81.2783L81.2842 47.1917ZM87.299 45.0683H85.2452V48.5683H84.406V45.0683H82.3522V44.3333H87.3048L87.299 45.0683ZM93.478 48.5917H92.5157L91.389 47.0167H89.253V48.5917H88.4139V44.3333H91.8878C92.2836 44.3133 92.6721 44.4448 92.9734 44.7008C93.1104 44.8264 93.2181 44.9802 93.2891 45.1515C93.36 45.3228 93.3925 45.5074 93.3841 45.6925C93.4046 46.0037 93.3049 46.3109 93.1053 46.5515C92.9058 46.7921 92.6215 46.9481 92.3103 46.9875L93.478 48.5917ZM91.7646 46.2583C92.2751 46.2583 92.5274 46.0658 92.5274 45.675C92.5274 45.2842 92.2575 45.0567 91.7059 45.0567H89.253V46.2583H91.7646ZM99.9505 48.5917H99.0233L98.5304 47.6758H95.6492L95.1563 48.5917H94.2291L96.5764 44.3158H97.6209L99.9505 48.5917ZM98.1138 46.9233L97.0928 45.0275L96.0658 46.9175L98.1138 46.9233ZM106.124 45.3425L105.361 45.605C105.129 45.379 104.853 45.202 104.551 45.0848C104.248 44.9675 103.925 44.9123 103.6 44.9225C103.077 44.8978 102.561 45.0477 102.133 45.3483C101.963 45.4761 101.825 45.6414 101.73 45.8312C101.635 46.021 101.586 46.2301 101.586 46.4421C101.586 46.6541 101.635 46.8632 101.73 47.053C101.825 47.2427 101.963 47.408 102.133 47.5358C102.563 47.8303 103.079 47.974 103.6 47.9442C103.926 47.9571 104.25 47.9026 104.553 47.7841C104.857 47.6656 105.132 47.4857 105.361 47.2558L106.088 47.6408C105.5 48.2389 104.717 48.6099 103.878 48.6878C103.04 48.7658 102.202 48.5457 101.511 48.0667C101.254 47.8678 101.047 47.6113 100.908 47.318C100.769 47.0248 100.702 46.703 100.711 46.379C100.721 46.0549 100.808 45.7377 100.964 45.4532C101.12 45.1687 101.342 44.9249 101.611 44.7417C102.307 44.2822 103.146 44.0882 103.974 44.1954C104.802 44.3026 105.564 44.7037 106.118 45.325L106.124 45.3425ZM112.138 48.5917H107.503V44.3333H111.962V45.0917H108.336V46.0075H110.859V46.7658H108.336V47.8333H112.127L112.138 48.5917ZM118.37 47.1917C118.366 47.4176 118.301 47.6383 118.183 47.831C118.064 48.0238 117.896 48.1816 117.695 48.2883C117.131 48.5687 116.508 48.7147 115.876 48.7147C115.245 48.7147 114.622 48.5687 114.057 48.2883C113.853 48.1822 113.681 48.0232 113.561 47.8281C113.44 47.633 113.374 47.4091 113.371 47.18V44.3333H114.21V47.0167C114.21 47.6467 114.765 47.9617 115.876 47.9617C116.987 47.9617 117.539 47.6467 117.531 47.0167V44.3333H118.364L118.37 47.1917ZM124.403 45.0683H122.349V48.5683H121.469V45.0683H119.415V44.3333H124.403V45.0683ZM126.339 48.5917H125.494V44.3333H126.333L126.339 48.5917ZM133.146 45.3425L132.383 45.605C132.152 45.3785 131.876 45.2011 131.574 45.0838C131.271 44.9665 130.947 44.9116 130.623 44.9225C130.1 44.8978 129.583 45.0477 129.156 45.3483C128.986 45.4761 128.848 45.6414 128.753 45.8312C128.658 46.021 128.608 46.2301 128.608 46.4421C128.608 46.6541 128.658 46.8632 128.753 47.053C128.848 47.2427 128.986 47.408 129.156 47.5358C129.59 47.8341 130.113 47.9779 130.64 47.9442C130.966 47.9571 131.29 47.9026 131.593 47.7841C131.897 47.6656 132.172 47.4857 132.401 47.2558L133.123 47.6408C132.534 48.2389 131.751 48.6099 130.913 48.6878C130.074 48.7658 129.236 48.5457 128.546 48.0667C128.288 47.8674 128.082 47.6105 127.943 47.317C127.805 47.0234 127.738 46.7015 127.748 46.3775C127.759 46.0534 127.846 45.7364 128.003 45.4521C128.16 45.1678 128.382 44.9244 128.651 44.7417C129.347 44.2822 130.186 44.0882 131.014 44.1954C131.842 44.3026 132.604 44.7037 133.158 45.325L133.146 45.3425ZM139.619 48.5917H138.697L138.198 47.6758H135.323L134.818 48.5917H133.897L136.244 44.3158H137.289L139.619 48.5917ZM137.782 46.9233L136.755 45.0275L135.728 46.9175L137.782 46.9233ZM144.806 48.5917H140.64V44.3333H141.485V47.8333H144.818L144.806 48.5917ZM149.811 45.3717C149.252 45.0734 148.627 44.9171 147.992 44.9167C147.038 44.9167 146.559 45.0858 146.555 45.4242C146.555 45.6225 146.731 45.7508 147.094 45.815L148.561 45.9492C149.083 45.9699 149.594 46.0969 150.064 46.3225C150.223 46.4149 150.353 46.5494 150.44 46.7111C150.527 46.8728 150.568 47.0553 150.557 47.2383C150.563 47.4547 150.509 47.6686 150.4 47.8561C150.291 48.0436 150.132 48.1973 149.94 48.3C149.386 48.5801 148.766 48.707 148.145 48.6675C147.216 48.7155 146.296 48.4593 145.528 47.9383L145.985 47.355C146.627 47.7812 147.386 47.9974 148.157 47.9733C148.543 47.9908 148.929 47.9272 149.289 47.7867C149.559 47.67 149.7 47.495 149.7 47.2967C149.7 47.0983 149.524 46.9117 149.201 46.8183C148.924 46.7549 148.641 46.7197 148.356 46.7133L147.241 46.6667C146.828 46.6517 146.425 46.5354 146.068 46.3283C145.943 46.2434 145.842 46.1279 145.775 45.993C145.709 45.8581 145.678 45.7084 145.686 45.5583C145.685 45.3589 145.739 45.163 145.843 44.9922C145.946 44.8214 146.095 44.6822 146.273 44.59C146.794 44.3222 147.377 44.1974 147.963 44.2283C148.791 44.1926 149.61 44.4105 150.31 44.8525L149.811 45.3717Z" fill="#141414"/>
</svg>
