<svg width="91" height="34" viewBox="0 0 91 34" fill="none" xmlns="http://www.w3.org/2000/svg">
<path d="M84.1178 7.94918H83.5237V9.48548H83.0498V7.94918H82.4684V7.55566H84.1272L84.1178 7.94918ZM86.7087 9.48548H86.2601V8.03733L85.7229 9.48548H85.5207L84.9709 8.05307V9.48863H84.5064V7.55566H85.1794L85.6281 8.72677L86.0452 7.55566H86.7087V9.48548ZM16.228 9.44455C17.5129 9.44455 18.5377 9.79085 19.3024 10.4834C19.6831 10.8388 19.9819 11.2722 20.1783 11.7537C20.3747 12.2353 20.4639 12.7535 20.4399 13.2727C20.4399 14.49 20.0439 15.4344 19.2518 16.106C18.4598 16.7776 17.3191 17.1071 15.8299 17.0946H8.79948V21.5334H6.42969V9.44455H16.228ZM15.8709 14.9758C17.3033 14.9758 18.0195 14.426 18.0195 13.3262C18.0195 12.1614 17.257 11.579 15.7319 11.579H8.78052V14.979L15.8709 14.9758ZM37.1801 21.5334H34.4691L31.2809 17.0946H25.2774V21.5334H22.9076V9.44455H32.7028C33.9919 9.44455 35.0167 9.79085 35.7772 10.4834C36.159 10.8382 36.459 11.2714 36.6565 11.7529C36.854 12.2345 36.9442 12.753 36.921 13.2727C36.921 15.2749 35.9162 16.4996 33.9066 16.9466L37.1801 21.5334ZM32.3552 14.979C33.7876 14.979 34.5038 14.4291 34.5038 13.3294C34.5038 12.1646 33.7402 11.5821 32.213 11.5821H25.2774V14.9821L32.3552 14.979ZM42.896 21.5334H40.5262V9.44455H42.896V21.5334ZM64.0472 21.5334H61.6774L61.6142 11.5979L55.5318 19.8334L49.4651 11.5223L49.4019 11.5979V21.5334H47.0321V9.44455H50.5868L55.5286 16.276L60.4894 9.44455H64.0472V21.5334ZM81.2361 21.5334H68.1864V9.44455H80.7811V11.5664H70.5499V14.1794H77.6656V16.3012H70.5499V19.4021H81.2361V21.5334ZM10.1266 26.2242H9.63681L9.32083 25.6166H7.48187L7.1659 26.2242H6.67615L8.11698 23.5073H8.68573L10.1266 26.2242ZM9.09965 25.2105L8.40451 23.8946L7.70306 25.2105H9.09965ZM13.3874 26.2242H12.7144L11.1345 24.3038V26.2242H10.6922V23.926H11.3747L12.9545 25.8527V23.926H13.4064L13.3874 26.2242ZM16.6514 24.3227H15.5455V26.2116H15.0936V24.3227H13.9877V23.926H16.6545L16.6514 24.3227ZM17.6941 26.2242H17.2517V23.926H17.6941V26.2242ZM19.9817 25.2294H18.4335V24.8201H19.9817V25.2294ZM23.4511 26.2242H22.955L22.6896 25.7299H21.1382L20.8538 26.2242H20.3672L21.6311 23.9166H22.1935L23.4511 26.2242ZM22.4621 25.3238L21.9092 24.3007L21.3562 25.3207L22.4621 25.3238ZM26.8984 24.9649V25.0279C26.9046 25.2012 26.8708 25.3737 26.7996 25.532C26.7284 25.6903 26.6216 25.8301 26.4876 25.9408C26.1751 26.1849 25.7845 26.3079 25.388 26.2871C25.0174 26.2972 24.6536 26.1867 24.3516 25.9723C24.2024 25.8699 24.0804 25.7328 23.9961 25.573C23.9118 25.4131 23.8677 25.2352 23.8677 25.0546C23.8677 24.8741 23.9118 24.6962 23.9961 24.5363C24.0804 24.3765 24.2024 24.2394 24.3516 24.137C24.662 23.9203 25.0345 23.8098 25.4133 23.8221C25.65 23.8169 25.8852 23.8619 26.1031 23.9542C26.321 24.0464 26.5167 24.1839 26.6772 24.3573L26.2506 24.5714C26.1353 24.4622 25.9994 24.3767 25.8509 24.32C25.7023 24.2633 25.5439 24.2364 25.3849 24.2408C25.1128 24.2296 24.845 24.3119 24.6265 24.4738C24.5349 24.5428 24.4606 24.632 24.4094 24.7344C24.3582 24.8368 24.3316 24.9497 24.3316 25.0641C24.3316 25.1785 24.3582 25.2913 24.4094 25.3938C24.4606 25.4962 24.5349 25.5854 24.6265 25.6544C24.8478 25.815 25.1178 25.895 25.3912 25.881C25.5835 25.9011 25.7774 25.8621 25.9468 25.7693C26.1163 25.6764 26.2531 25.5342 26.3391 25.3616H25.2774V24.9649H26.8984ZM28.1212 26.2242H27.6567V23.926H28.1212V26.2242ZM31.7106 26.2242H31.0376L29.4577 24.3038V26.2242H29.0059V23.926H29.6821L31.2619 25.8527V23.926H31.7138L31.7106 26.2242ZM35.5023 24.9649V25.0279C35.5085 25.2012 35.4747 25.3737 35.4035 25.532C35.3323 25.6903 35.2255 25.8301 35.0915 25.9408C34.779 26.1849 34.3884 26.3079 33.9919 26.2871C33.6213 26.2972 33.2575 26.1867 32.9556 25.9723C32.8063 25.8699 32.6843 25.7328 32.6 25.573C32.5157 25.4131 32.4717 25.2352 32.4717 25.0546C32.4717 24.8741 32.5157 24.6962 32.6 24.5363C32.6843 24.3765 32.8063 24.2394 32.9556 24.137C33.2659 23.9203 33.6385 23.8098 34.0172 23.8221C34.2539 23.8169 34.4891 23.8619 34.707 23.9542C34.9249 24.0464 35.1206 24.1839 35.2811 24.3573L34.8545 24.5714C34.7396 24.4625 34.6043 24.3773 34.4563 24.3206C34.3082 24.2639 34.1505 24.2368 33.9919 24.2408C33.7198 24.2296 33.4521 24.3119 33.2336 24.4738C33.1425 24.5432 33.0688 24.6325 33.018 24.7349C32.9672 24.8372 32.9408 24.9499 32.9408 25.0641C32.9408 25.1783 32.9672 25.2909 33.018 25.3933C33.0688 25.4957 33.1425 25.585 33.2336 25.6544C33.4549 25.815 33.7248 25.895 33.9983 25.881C34.1906 25.9011 34.3845 25.8621 34.5539 25.7693C34.7233 25.6764 34.8602 25.5342 34.9462 25.3616H33.9035V24.9649H35.5023ZM40.2008 26.2242H39.5278L37.9479 24.3038V26.2242H37.4961V23.926H38.1691L39.749 25.8527V23.926H40.2008V26.2242ZM43.7681 25.4686C43.7658 25.5909 43.7306 25.7104 43.6661 25.8145C43.6016 25.9186 43.5103 26.0036 43.4016 26.0605C43.0974 26.2118 42.7621 26.2906 42.4221 26.2906C42.0821 26.2906 41.7468 26.2118 41.4426 26.0605C41.3332 26.0028 41.2414 25.9168 41.1769 25.8115C41.1124 25.7063 41.0776 25.5856 41.076 25.4623V23.926H41.5279V25.3742C41.5279 25.7142 41.827 25.8842 42.4252 25.8842C43.0235 25.8842 43.3205 25.7142 43.3163 25.3742V23.926H43.765L43.7681 25.4686ZM47.0068 24.3227H45.9009V26.2116H45.4491V24.3227H44.3432V23.926H47.01L47.0068 24.3227ZM50.334 26.2242H49.8158L49.2092 25.3742H48.059V26.2242H47.6072V23.926H49.4777C49.6909 23.9152 49.9001 23.9862 50.0623 24.1244C50.1361 24.1921 50.1941 24.2751 50.2323 24.3676C50.2705 24.46 50.2879 24.5597 50.2835 24.6596C50.2945 24.8275 50.2408 24.9933 50.1333 25.1231C50.0259 25.253 49.8728 25.3372 49.7052 25.3584L50.334 26.2242ZM49.4114 24.9649C49.6863 24.9649 49.8221 24.861 49.8221 24.6501C49.8221 24.4392 49.6768 24.3164 49.3798 24.3164H48.059V24.9649H49.4114ZM53.8192 26.2242H53.32L53.0545 25.7299H51.5031L51.2377 26.2242H50.7385L52.0024 23.9166H52.5648L53.8192 26.2242ZM52.8302 25.3238L52.2804 24.3007L51.7275 25.3207L52.8302 25.3238ZM57.1432 24.4707L56.7325 24.6123C56.6076 24.4904 56.4592 24.3949 56.2963 24.3316C56.1334 24.2683 55.9593 24.2385 55.7845 24.244C55.5029 24.2307 55.2248 24.3116 54.9946 24.4738C54.903 24.5428 54.8287 24.632 54.7775 24.7344C54.7263 24.8368 54.6997 24.9497 54.6997 25.0641C54.6997 25.1785 54.7263 25.2913 54.7775 25.3938C54.8287 25.4962 54.903 25.5854 54.9946 25.6544C55.226 25.8133 55.504 25.8908 55.7845 25.8747C55.9598 25.8817 56.1345 25.8523 56.2977 25.7884C56.4609 25.7244 56.609 25.6273 56.7325 25.5033L57.1243 25.711C56.8072 26.0338 56.3855 26.234 55.9343 26.2761C55.483 26.3182 55.0313 26.1994 54.6597 25.9408C54.521 25.8335 54.4097 25.6951 54.3348 25.5368C54.26 25.3786 54.2237 25.2049 54.2289 25.03C54.2342 24.8551 54.2808 24.684 54.365 24.5304C54.4492 24.3769 54.5685 24.2453 54.7134 24.1464C55.088 23.8984 55.5399 23.7937 55.9858 23.8516C56.4318 23.9094 56.8417 24.1259 57.1401 24.4612L57.1432 24.4707ZM60.3819 26.2242H57.8858V23.926H60.2871V24.3353H58.3344V24.8296H59.6931V25.2388H58.3344V25.8149H60.3756L60.3819 26.2242ZM63.7376 25.4686C63.7352 25.5905 63.7003 25.7096 63.6365 25.8137C63.5726 25.9177 63.4821 26.0029 63.3742 26.0605C63.07 26.2118 62.7347 26.2906 62.3947 26.2906C62.0547 26.2906 61.7193 26.2118 61.4152 26.0605C61.3052 26.0032 61.2128 25.9174 61.1477 25.8121C61.0826 25.7068 61.0473 25.586 61.0455 25.4623V23.926H61.4973V25.3742C61.4973 25.7142 61.7964 25.8842 62.3947 25.8842C62.9929 25.8842 63.2899 25.7142 63.2857 25.3742V23.926H63.7344L63.7376 25.4686ZM66.9858 24.3227H65.8799V26.2116H65.4059V24.3227H64.3V23.926H66.9858V24.3227ZM68.0285 26.2242H67.5735V23.926H68.0253L68.0285 26.2242ZM71.6937 24.4707L71.283 24.6123C71.1583 24.4901 71.01 24.3944 70.847 24.331C70.6841 24.2677 70.5099 24.2381 70.3351 24.244C70.0534 24.2307 69.7753 24.3116 69.5451 24.4738C69.4535 24.5428 69.3792 24.632 69.328 24.7344C69.2768 24.8368 69.2502 24.9497 69.2502 25.0641C69.2502 25.1785 69.2768 25.2913 69.328 25.3938C69.3792 25.4962 69.4535 25.5854 69.5451 25.6544C69.7791 25.8153 70.0608 25.893 70.3445 25.8747C70.5198 25.8817 70.6945 25.8523 70.8577 25.7884C71.0209 25.7244 71.169 25.6273 71.2925 25.5033L71.6811 25.711C71.3641 26.0338 70.9424 26.234 70.4911 26.2761C70.0398 26.3182 69.5882 26.1994 69.2165 25.9408C69.078 25.8333 68.9669 25.6947 68.8923 25.5362C68.8178 25.3778 68.7818 25.2041 68.7873 25.0292C68.7929 24.8543 68.8398 24.6832 68.9242 24.5298C69.0087 24.3764 69.1283 24.245 69.2734 24.1464C69.648 23.8984 70.0999 23.7937 70.5458 23.8516C70.9918 23.9094 71.4017 24.1259 71.7001 24.4612L71.6937 24.4707ZM75.1789 26.2242H74.6828L74.4143 25.7299H72.866L72.5943 26.2242H72.0982L73.3621 23.9166H73.9245L75.1789 26.2242ZM74.1899 25.3238L73.637 24.3007L73.084 25.3207L74.1899 25.3238ZM77.9721 26.2242H75.7287V23.926H76.1837V25.8149H77.9784L77.9721 26.2242ZM80.6674 24.4864C80.3661 24.3255 80.0296 24.2411 79.6878 24.2408C79.1739 24.2408 78.9158 24.3321 78.9137 24.5147C78.9137 24.6218 79.0085 24.691 79.2044 24.7257L79.9943 24.7981C80.275 24.8092 80.5503 24.8778 80.8032 24.9996C80.889 25.0494 80.9592 25.122 81.0061 25.2093C81.0529 25.2965 81.0746 25.395 81.0686 25.4938C81.0721 25.6106 81.0429 25.726 80.9844 25.8272C80.9258 25.9284 80.8401 26.0113 80.7369 26.0668C80.4382 26.218 80.1043 26.2864 79.77 26.2651C79.2697 26.291 78.7747 26.1528 78.3608 25.8716L78.6072 25.5568C78.9524 25.7868 79.3612 25.9035 79.7763 25.8905C79.9844 25.8999 80.1922 25.8656 80.3861 25.7897C80.5315 25.7268 80.6073 25.6323 80.6073 25.5253C80.6073 25.4183 80.5125 25.3175 80.3387 25.2671C80.1894 25.2329 80.0369 25.2139 79.8837 25.2105L79.2834 25.1853C79.0609 25.1772 78.8438 25.1145 78.6514 25.0027C78.5843 24.9568 78.5301 24.8945 78.4941 24.8217C78.4581 24.7489 78.4416 24.6682 78.4461 24.5871C78.4454 24.4795 78.4746 24.3738 78.5303 24.2816C78.5861 24.1894 78.6663 24.1143 78.762 24.0646C79.0426 23.92 79.3567 23.8526 79.672 23.8694C80.118 23.8501 80.5592 23.9677 80.9359 24.2062L80.6674 24.4864Z" fill="#141414"/>
</svg>
