<svg width="20" height="20" viewBox="0 0 20 20" fill="none" xmlns="http://www.w3.org/2000/svg">
<path d="M9.16699 1.66667C13.3092 1.66667 16.667 5.02454 16.667 9.16667C16.667 10.9375 16.0519 12.5638 15.0256 13.8468L18.5062 17.3275L17.3278 18.5058L13.8472 15.0253C12.5642 16.0516 10.9378 16.6667 9.16699 16.6667C5.02486 16.6667 1.66699 13.3088 1.66699 9.16667C1.66699 5.02454 5.02486 1.66667 9.16699 1.66667ZM9.16699 3.33334C5.94533 3.33334 3.33366 5.94501 3.33366 9.16667C3.33366 12.3883 5.94533 15 9.16699 15C12.3887 15 15.0003 12.3883 15.0003 9.16667C15.0003 5.94501 12.3887 3.33334 9.16699 3.33334Z" fill="black"/>
</svg>
