<svg width="20" height="20" viewBox="0 0 20 20" fill="none" xmlns="http://www.w3.org/2000/svg">
<path d="M3.3335 6.875V15.8333C3.3335 16.7542 4.07933 17.5 5.00016 17.5H14.1668C15.5477 17.5 16.6668 16.3808 16.6668 15V15C16.6668 13.6192 15.5477 12.5 14.1668 12.5H10.8335" stroke="#141414" stroke-width="1.5" stroke-linecap="round" stroke-linejoin="round"/>
<path d="M16.6667 10V6.875" stroke="#141414" stroke-width="1.5" stroke-linecap="round" stroke-linejoin="round"/>
<path d="M12.5002 10.8335L10.8335 12.5002L12.5002 14.1668" stroke="#141414" stroke-width="1.5" stroke-linecap="round" stroke-linejoin="round"/>
<path fill-rule="evenodd" clip-rule="evenodd" d="M16.6667 6.87516H3.33333C2.87333 6.87516 2.5 6.50183 2.5 6.04183V4.16683C2.5 3.70683 2.87333 3.3335 3.33333 3.3335H16.6667C17.1267 3.3335 17.5 3.70683 17.5 4.16683V6.04183C17.5 6.50183 17.1267 6.87516 16.6667 6.87516Z" stroke="#141414" stroke-width="1.5" stroke-linecap="round" stroke-linejoin="round"/>
</svg>
