<svg width="178" height="24" viewBox="0 0 178 24" fill="none" xmlns="http://www.w3.org/2000/svg">
<g clip-path="url(#clip0_309_5231)">
<path d="M11.8922 6.96C11.5086 4.224 9.92619 2.544 7.4806 2.544C4.21983 2.544 3.30873 4.704 3.30873 6.288C3.30873 8.016 4.41164 9.12 6.66541 9.984L9.59052 11.088C13.2829 12.48 14.9612 14.592 14.9612 17.424C14.9612 21.168 11.9881 23.856 7.57651 23.856C3.35668 23.808 0.383621 21.6 0 16.992H2.92511C3.16487 19.536 4.45959 21.264 7.67241 21.264C10.2139 21.264 12.0361 19.632 12.0361 17.616C12.0361 15.84 10.5496 14.688 8.43966 13.824L5.51455 12.672C2.06196 11.328 0.383621 9.312 0.383621 6.336C0.383621 2.4 3.69235 0 7.4806 0C11.2689 0 14.2899 2.256 14.6255 6.96H11.8922Z" fill="#141414"/>
<path d="M33.7591 0.384003H36.6842V23.472H33.7591V13.008H21.723V23.472H18.7979V0.384003H21.723V10.272H33.7591V0.384003Z" fill="#141414"/>
<path d="M53.0355 0C60.8518 0 65.2634 6.192 65.2634 11.904C65.2634 17.616 60.8518 23.808 53.0355 23.808C45.2193 23.808 40.8076 17.616 40.8076 11.904C40.8076 6.192 45.1713 0 53.0355 0ZM53.0355 21.072C58.0705 21.072 62.1945 16.944 62.1945 11.904C62.1945 6.864 58.0705 2.736 53.0355 2.736C48.0005 2.736 43.8766 6.864 43.8766 11.904C43.8286 16.944 47.8566 21.024 52.8917 21.072H53.0355Z" fill="#141414"/>
<path d="M69.3877 0.384003H75.7654C80.6566 0.384003 83.5817 4.128 83.5817 8.016C83.5817 11.904 80.6566 15.6 75.7654 15.6H72.3128V23.472H69.3877V0.384003ZM75.142 13.008C78.6425 13.008 80.6566 11.328 80.6566 7.968C80.6566 4.608 78.6425 2.88 75.142 2.88H72.2649V13.008H75.142Z" fill="#141414"/>
<path d="M120.217 5.232C118.587 3.744 116.477 2.88 114.271 2.88C109.236 2.88 105.112 7.008 105.112 12.048C105.112 17.088 109.236 21.216 114.271 21.216C116.573 21.216 118.778 20.352 120.409 18.768L122.279 20.88C120.073 22.848 117.244 23.952 114.271 24C106.455 24 102.043 17.808 102.043 12.096C102.043 6.384 106.455 0.192001 114.271 0.192001C117.196 0.192001 119.977 1.248 122.183 3.12L120.217 5.232Z" fill="#141414"/>
<path d="M137.048 0.143997C144.864 0.143997 149.276 6.336 149.276 12.048C149.276 17.76 144.864 23.952 137.048 23.952C129.232 23.952 124.82 17.76 124.82 12.048C124.82 6.336 129.232 0.143997 137.048 0.143997ZM137.048 21.216C142.083 21.216 146.207 17.088 146.207 12.048C146.207 7.008 142.083 2.88 137.048 2.88C132.013 2.88 127.889 7.008 127.889 12.048C127.841 17.088 131.917 21.168 136.952 21.216C136.984 21.216 137.016 21.216 137.048 21.216Z" fill="#141414"/>
<path d="M175.075 0.480003H178V23.568H175.075V6.48H175.027L165.724 23.808L156.421 6.48H156.325V23.568H153.448V0.480003H156.373L165.772 17.904L175.075 0.480003Z" fill="#141414"/>
<path d="M97.2477 11.568C97.2477 14.064 95.1857 16.128 92.6922 16.128C90.1987 16.128 88.1367 14.064 88.1367 11.568C88.1367 9.072 90.1987 7.008 92.6922 7.008C95.1857 7.056 97.1998 9.072 97.2477 11.568Z" fill="#098AA7"/>
</g>
<defs>
<clipPath id="clip0_309_5231">
<rect width="178" height="24" fill="white"/>
</clipPath>
</defs>
</svg>
