<svg width="148" height="20" viewBox="0 0 148 20" fill="none" xmlns="http://www.w3.org/2000/svg">
<g clip-path="url(#clip0_309_6041)">
<path d="M9.88793 5.8C9.56897 3.52 8.25323 2.12 6.21983 2.12C3.50862 2.12 2.75108 3.92 2.75108 5.24C2.75108 6.68 3.6681 7.6 5.54203 8.32L7.97414 9.24C11.0442 10.4 12.4397 12.16 12.4397 14.52C12.4397 17.64 9.96767 19.88 6.29957 19.88C2.79095 19.84 0.318966 18 0 14.16H2.43211C2.63147 16.28 3.70797 17.72 6.37931 17.72C8.49246 17.72 10.0075 16.36 10.0075 14.68C10.0075 13.2 8.77155 12.24 7.01724 11.52L4.58513 10.56C1.71444 9.44 0.318966 7.76 0.318966 5.28C0.318966 2 3.07004 0 6.21983 0C9.36961 0 11.8815 1.88 12.1606 5.8H9.88793Z" fill="black"/>
<path d="M28.0686 0.320007H30.5007V19.56H28.0686V10.84H18.061V19.56H15.6289V0.320007H18.061V8.56001H28.0686V0.320007Z" fill="black"/>
<path d="M44.0967 0C50.5956 0 54.2637 5.16 54.2637 9.92C54.2637 14.68 50.5956 19.84 44.0967 19.84C37.5978 19.84 33.9297 14.68 33.9297 9.92C33.9297 5.16 37.5579 0 44.0967 0ZM44.0967 17.56C48.2831 17.56 51.712 14.12 51.712 9.92C51.712 5.72 48.2831 2.28 44.0967 2.28C39.9103 2.28 36.4814 5.72 36.4814 9.92C36.4415 14.12 39.7907 17.52 43.9771 17.56H44.0967Z" fill="black"/>
<path d="M57.6934 0.320007H62.9962C67.063 0.320007 69.4951 3.44001 69.4951 6.68001C69.4951 9.92001 67.063 13 62.9962 13H60.1255V19.56H57.6934V0.320007ZM62.4778 10.84C65.3884 10.84 67.063 9.44001 67.063 6.64001C67.063 3.84001 65.3884 2.40001 62.4778 2.40001H60.0856V10.84H62.4778Z" fill="black"/>
<path d="M99.9557 4.36C98.6001 3.12 96.8458 2.4 95.0118 2.4C90.8253 2.4 87.3964 5.84 87.3964 10.04C87.3964 14.24 90.8253 17.68 95.0118 17.68C96.9255 17.68 98.7596 16.96 100.115 15.64L101.67 17.4C99.8361 19.04 97.4837 19.96 95.0118 20C88.5128 20 84.8447 14.84 84.8447 10.08C84.8447 5.32 88.5128 0.160004 95.0118 0.160004C97.4439 0.160004 99.7564 1.04 101.59 2.6L99.9557 4.36Z" fill="black"/>
<path d="M113.95 0.120003C120.449 0.120003 124.117 5.28 124.117 10.04C124.117 14.8 120.449 19.96 113.95 19.96C107.451 19.96 103.783 14.8 103.783 10.04C103.783 5.28 107.451 0.120003 113.95 0.120003ZM113.95 17.68C118.137 17.68 121.566 14.24 121.566 10.04C121.566 5.84 118.137 2.4 113.95 2.4C109.764 2.4 106.335 5.84 106.335 10.04C106.295 14.24 109.684 17.64 113.87 17.68C113.897 17.68 113.924 17.68 113.95 17.68Z" fill="black"/>
<path d="M145.568 0.399994H148V19.64H145.568V5.39999H145.528L137.793 19.84L130.058 5.39999H129.978V19.64H127.586V0.399994H130.018L137.833 14.92L145.568 0.399994Z" fill="black"/>
<path d="M80.8577 9.64C80.8577 11.72 79.1432 13.44 77.0699 13.44C74.9967 13.44 73.2822 11.72 73.2822 9.64C73.2822 7.56 74.9967 5.84 77.0699 5.84C79.1432 5.88 80.8178 7.56 80.8577 9.64Z" fill="#098AA7"/>
</g>
<defs>
<clipPath id="clip0_309_6041">
<rect width="148" height="20" fill="white"/>
</clipPath>
</defs>
</svg>
