<svg width="356" height="48" viewBox="0 0 356 48" fill="none" xmlns="http://www.w3.org/2000/svg">
<g clip-path="url(#clip0_309_6338)">
<path d="M23.7845 13.92C23.0172 8.448 19.8524 5.088 14.9612 5.088C8.43965 5.088 6.61746 9.408 6.61746 12.576C6.61746 16.032 8.82327 18.24 13.3308 19.968L19.181 22.176C26.5657 24.96 29.9224 29.184 29.9224 34.848C29.9224 42.336 23.9763 47.712 15.153 47.712C6.71336 47.616 0.767241 43.2 0 33.984H5.85021C6.32974 39.072 8.91918 42.528 15.3448 42.528C20.4278 42.528 24.0722 39.264 24.0722 35.232C24.0722 31.68 21.0991 29.376 16.8793 27.648L11.0291 25.344C4.12392 22.656 0.767241 18.624 0.767241 12.672C0.767241 4.8 7.3847 0 14.9612 0C22.5377 0 28.5797 4.512 29.2511 13.92H23.7845Z" fill="white"/>
<path d="M67.5171 0.768066H73.3674V46.9441H67.5171V26.0161H43.4449V46.9441H37.5947V0.768066H43.4449V20.5441H67.5171V0.768066Z" fill="white"/>
<path d="M106.071 0C121.704 0 130.527 12.384 130.527 23.808C130.527 35.232 121.704 47.616 106.071 47.616C90.4385 47.616 81.6152 35.232 81.6152 23.808C81.6152 12.384 90.3426 0 106.071 0ZM106.071 42.144C116.141 42.144 124.389 33.888 124.389 23.808C124.389 13.728 116.141 5.472 106.071 5.472C96.001 5.472 87.7532 13.728 87.7532 23.808C87.6573 33.888 95.7133 42.048 105.783 42.144H106.071Z" fill="white"/>
<path d="M138.774 0.768066H151.53C161.312 0.768066 167.162 8.25607 167.162 16.0321C167.162 23.8081 161.312 31.2001 151.53 31.2001H144.625V46.9441H138.774V0.768066ZM150.283 26.0161C157.284 26.0161 161.312 22.6561 161.312 15.9361C161.312 9.21607 157.284 5.76007 150.283 5.76007H144.529V26.0161H150.283Z" fill="white"/>
<path d="M240.434 10.4638C237.173 7.48779 232.953 5.75979 228.542 5.75979C218.472 5.75979 210.224 14.0158 210.224 24.0958C210.224 34.1758 218.472 42.4318 228.542 42.4318C233.145 42.4318 237.557 40.7038 240.818 37.5358L244.558 41.7598C240.146 45.6958 234.488 47.9038 228.542 47.9998C212.909 47.9998 204.086 35.6158 204.086 24.1918C204.086 12.7678 212.909 0.383789 228.542 0.383789C234.392 0.383789 239.954 2.49579 244.366 6.23979L240.434 10.4638Z" fill="white"/>
<path d="M274.097 0.288086C289.73 0.288086 298.553 12.6721 298.553 24.0961C298.553 35.5201 289.73 47.9041 274.097 47.9041C258.465 47.9041 249.642 35.5201 249.642 24.0961C249.642 12.6721 258.465 0.288086 274.097 0.288086ZM274.097 42.4321C284.167 42.4321 292.415 34.1761 292.415 24.0961C292.415 14.0161 284.167 5.76009 274.097 5.76009C264.027 5.76009 255.78 14.0161 255.78 24.0961C255.684 34.1761 263.836 42.3361 273.906 42.4321C273.97 42.4321 274.033 42.4321 274.097 42.4321Z" fill="white"/>
<path d="M350.15 0.959961H356V47.136H350.15V12.96H350.054L331.448 47.616L312.843 12.96H312.651V47.136H306.896V0.959961H312.747L331.544 35.808L350.15 0.959961Z" fill="white"/>
<path d="M194.495 23.1361C194.495 28.1281 190.371 32.2561 185.384 32.2561C180.397 32.2561 176.273 28.1281 176.273 23.1361C176.273 18.1441 180.397 14.0161 185.384 14.0161C190.371 14.1121 194.4 18.1441 194.495 23.1361Z" fill="#098AA7"/>
</g>
<defs>
<clipPath id="clip0_309_6338">
<rect width="356" height="48" fill="white"/>
</clipPath>
</defs>
</svg>
