<svg width="28" height="28" viewBox="0 0 28 28" fill="none" xmlns="http://www.w3.org/2000/svg">
<path d="M7.59375 25C7.16875 25 6.79687 24.835 6.47812 24.505C6.15937 24.175 6 23.79 6 23.35V9.05C6 8.61 6.15937 8.225 6.47812 7.895C6.79687 7.565 7.16875 7.4 7.59375 7.4H10.5156V7.125C10.5156 5.97 10.9008 4.99375 11.6711 4.19625C12.4414 3.39875 13.3844 3 14.5 3C15.6156 3 16.5586 3.39875 17.3289 4.19625C18.0992 4.99375 18.4844 5.97 18.4844 7.125V7.4H21.4062C21.8313 7.4 22.2031 7.565 22.5219 7.895C22.8406 8.225 23 8.61 23 9.05V23.35C23 23.79 22.8406 24.175 22.5219 24.505C22.2031 24.835 21.8313 25 21.4062 25H7.59375ZM7.59375 23.35H21.4062V9.05H18.4844V11.525C18.4844 11.7587 18.4075 11.9547 18.2538 12.1127C18.1003 12.2709 17.9099 12.35 17.6827 12.35C17.4557 12.35 17.2669 12.2709 17.1164 12.1127C16.9659 11.9547 16.8906 11.7587 16.8906 11.525V9.05H12.1094V11.525C12.1094 11.7587 12.0325 11.9547 11.8788 12.1127C11.7253 12.2709 11.5349 12.35 11.3077 12.35C11.0807 12.35 10.8919 12.2709 10.7414 12.1127C10.5909 11.9547 10.5156 11.7587 10.5156 11.525V9.05H7.59375V23.35ZM12.1094 7.4H16.8906V7.125C16.8906 6.42832 16.6604 5.84167 16.2 5.365C15.7396 4.88833 15.1729 4.65 14.5 4.65C13.8271 4.65 13.2604 4.88833 12.8 5.365C12.3396 5.84167 12.1094 6.42832 12.1094 7.125V7.4Z" fill="black"/>
</svg>
