<svg width="68" height="12" viewBox="0 0 68 12" fill="none" xmlns="http://www.w3.org/2000/svg">
<path d="M6 0L7.34015 4.15544L11.7063 4.1459L8.16841 6.70456L9.52671 10.8541L6 8.28L2.47329 10.8541L3.83159 6.70456L0.293661 4.1459L4.65985 4.15544L6 0Z" fill="#141414"/>
<path d="M20 0L21.3402 4.15544L25.7063 4.1459L22.1684 6.70456L23.5267 10.8541L20 8.28L16.4733 10.8541L17.8316 6.70456L14.2937 4.1459L18.6598 4.15544L20 0Z" fill="#141414"/>
<path d="M34 0L35.3402 4.15544L39.7063 4.1459L36.1684 6.70456L37.5267 10.8541L34 8.28L30.4733 10.8541L31.8316 6.70456L28.2937 4.1459L32.6598 4.15544L34 0Z" fill="#141414"/>
<path d="M48 0L49.3402 4.15544L53.7063 4.1459L50.1684 6.70456L51.5267 10.8541L48 8.28L44.4733 10.8541L45.8316 6.70456L42.2937 4.1459L46.6598 4.15544L48 0Z" fill="#141414"/>
<path d="M62 0L63.3402 4.15544L67.7063 4.1459L64.1684 6.70456L65.5267 10.8541L62 8.28L58.4733 10.8541L59.8316 6.70456L56.2937 4.1459L60.6598 4.15544L62 0Z" fill="#141414"/>
</svg>
