<svg width="54" height="10" viewBox="0 0 54 10" fill="none" xmlns="http://www.w3.org/2000/svg">
<path d="M5 0L6.11679 3.46287L9.75528 3.45492L6.80701 5.58713L7.93893 9.04508L5 6.9L2.06107 9.04508L3.19299 5.58713L0.244718 3.45492L3.88321 3.46287L5 0Z" fill="#EABD0A"/>
<path d="M16 0L17.1168 3.46287L20.7553 3.45492L17.807 5.58713L18.9389 9.04508L16 6.9L13.0611 9.04508L14.193 5.58713L11.2447 3.45492L14.8832 3.46287L16 0Z" fill="#EABD0A"/>
<path d="M27 0L28.1168 3.46287L31.7553 3.45492L28.807 5.58713L29.9389 9.04508L27 6.9L24.0611 9.04508L25.193 5.58713L22.2447 3.45492L25.8832 3.46287L27 0Z" fill="#EABD0A"/>
<path d="M38 0L39.1168 3.46287L42.7553 3.45492L39.807 5.58713L40.9389 9.04508L38 6.9L35.0611 9.04508L36.193 5.58713L33.2447 3.45492L36.8832 3.46287L38 0Z" fill="#EABD0A"/>
<path d="M49 0L50.1168 3.46287L53.7553 3.45492L50.807 5.58713L51.9389 9.04508L49 6.9L46.0611 9.04508L47.193 5.58713L44.2447 3.45492L47.8832 3.46287L49 0Z" fill="#EABD0A"/>
</svg>
