<svg width="18" height="18" viewBox="0 0 18 18" fill="none" xmlns="http://www.w3.org/2000/svg">
<path fill-rule="evenodd" clip-rule="evenodd" d="M0 2.25H18V15.75H0V2.25Z" fill="#F7FCFF"/>
<path fill-rule="evenodd" clip-rule="evenodd" d="M0 10.4996V11.6246H18V10.4996H0ZM0 12.5629V13.6879H18V12.5629H0ZM0 6.37537V7.50037H18V6.37537H0ZM0 14.625V15.75H18V14.625H0ZM0 8.4375V9.5625H18V8.4375H0ZM0 2.25V3.375H18V2.25H0ZM0 4.31269V5.43769H18V4.31269H0Z" fill="#E31D1C"/>
<path d="M0 2.25H11.25V9.5625H0V2.25Z" fill="#2E42A5"/>
<path fill-rule="evenodd" clip-rule="evenodd" d="M0.968336 3.90328L0.559961 4.18959L0.697773 3.67997L0.334961 3.35709H0.809148L0.967773 2.94141L1.15396 3.35766H1.55784L1.24059 3.67997L1.36321 4.18959L0.968336 3.90328ZM3.21834 3.90328L2.80996 4.18959L2.94777 3.67997L2.58496 3.35709H3.05915L3.21777 2.94141L3.40396 3.35766H3.80784L3.49059 3.67997L3.61321 4.18959L3.21834 3.90328ZM5.05996 4.18959L5.46834 3.90272L5.86321 4.18959L5.74058 3.67997L6.05784 3.35709H5.65396L5.46777 2.94141L5.30915 3.35766H4.83496L5.19777 3.67997L5.05996 4.18959ZM7.71834 3.90272L7.30996 4.18959L7.44777 3.67997L7.08496 3.35709H7.55859L7.71777 2.94141L7.90396 3.35766H8.30784L7.99058 3.67997L8.11321 4.18959L7.71834 3.90272ZM0.559961 6.44016L0.968336 6.15328L1.36321 6.44016L1.24059 5.93053L1.55784 5.60766H1.15396L0.967773 5.19197L0.809148 5.60822H0.334961L0.697773 5.93053L0.559961 6.44016ZM3.21834 6.15328L2.80996 6.44016L2.94777 5.93053L2.58496 5.60766H3.05915L3.21777 5.19197L3.40396 5.60822H3.80784L3.49059 5.93053L3.61321 6.44016L3.21834 6.15328ZM5.05996 6.44016L5.46834 6.15328L5.86321 6.44016L5.74058 5.93053L6.05784 5.60766H5.65396L5.46777 5.19197L5.30915 5.60822H4.83496L5.19777 5.93053L5.05996 6.44016ZM7.71834 6.15328L7.30996 6.44016L7.44777 5.93053L7.08496 5.60766H7.55859L7.71777 5.19197L7.90396 5.60822H8.30784L7.99058 5.93053L8.11321 6.44016L7.71834 6.15328ZM0.559961 8.69016L0.968336 8.40328L1.36321 8.69016L1.24059 8.18053L1.55784 7.85766H1.15396L0.967773 7.44197L0.809148 7.85822H0.334961L0.697773 8.18053L0.559961 8.69016ZM3.21834 8.40328L2.80996 8.69016L2.94777 8.18053L2.58496 7.85766H3.05915L3.21777 7.44197L3.40396 7.85822H3.80784L3.49059 8.18053L3.61321 8.69016L3.21834 8.40328ZM5.05996 8.69016L5.46834 8.40328L5.86321 8.69016L5.74058 8.18053L6.05784 7.85766H5.65396L5.46777 7.44197L5.30915 7.85822H4.83496L5.19777 8.18053L5.05996 8.69016ZM7.71834 8.40328L7.30996 8.69016L7.44777 8.18053L7.08496 7.85766H7.55859L7.71777 7.44197L7.90396 7.85822H8.30784L7.99058 8.18053L8.11321 8.69016L7.71834 8.40328ZM9.55996 4.19016L9.96834 3.90328L10.3632 4.19016L10.2406 3.68053L10.5578 3.35766H10.154L9.96777 2.94197L9.80915 3.35822H9.33496L9.69777 3.68053L9.55996 4.19016ZM9.96834 6.15328L9.55996 6.44016L9.69777 5.93053L9.33496 5.60766H9.80915L9.96777 5.19197L10.154 5.60822H10.5578L10.2406 5.93053L10.3632 6.44016L9.96834 6.15328ZM9.55996 8.69016L9.96834 8.40328L10.3632 8.69016L10.2406 8.18053L10.5578 7.85766H10.154L9.96777 7.44197L9.80915 7.85822H9.33496L9.69777 8.18053L9.55996 8.69016ZM2.09334 5.02772L1.68496 5.31459L1.82277 4.80497L1.45996 4.48209H1.93415L2.09277 4.06641L2.27896 4.48266H2.68284L2.36559 4.80497L2.48821 5.31459L2.09334 5.02772ZM3.93496 5.31459L4.34334 5.02772L4.73821 5.31459L4.61559 4.80497L4.93284 4.48209H4.52896L4.34277 4.06641L4.18415 4.48266H3.70996L4.07277 4.80497L3.93496 5.31459ZM6.59334 5.02772L6.18496 5.31459L6.32277 4.80497L5.95996 4.48209H6.43359L6.59277 4.06641L6.77896 4.48266H7.18284L6.86559 4.80497L6.98821 5.31459L6.59334 5.02772ZM1.68496 7.56459L2.09334 7.27772L2.48821 7.56459L2.36559 7.05497L2.68284 6.73209H2.27896L2.09277 6.31641L1.93415 6.73266H1.45996L1.82277 7.05497L1.68496 7.56459ZM4.34334 7.27772L3.93496 7.56459L4.07277 7.05497L3.70996 6.73209H4.18415L4.34277 6.31641L4.52896 6.73266H4.93284L4.61559 7.05497L4.73821 7.56459L4.34334 7.27772ZM6.18496 7.56459L6.59334 7.27772L6.98821 7.56459L6.86559 7.05497L7.18284 6.73209H6.77896L6.59277 6.31641L6.43359 6.73266H5.95996L6.32277 7.05497L6.18496 7.56459ZM8.84334 5.02772L8.43496 5.31459L8.57277 4.80497L8.20996 4.48209H8.68359L8.84277 4.06641L9.02896 4.48266H9.43283L9.11559 4.80497L9.23821 5.31459L8.84334 5.02772ZM8.43496 7.56459L8.84334 7.27772L9.23821 7.56459L9.11559 7.05497L9.43283 6.73209H9.02896L8.84277 6.31641L8.68359 6.73266H8.20996L8.57277 7.05497L8.43496 7.56459Z" fill="#F7FCFF"/>
</svg>
