<svg width="64" height="64" viewBox="0 0 64 64" fill="none" xmlns="http://www.w3.org/2000/svg">
<g clip-path="url(#clip0_796_10003)">
<path d="M32 64C14.3552 64 0 49.6448 0 32C0 14.3552 14.3552 0 32 0C49.6448 0 64 14.3552 64 32C64 49.6448 49.6448 64 32 64ZM32 2.4C15.6784 2.4 2.4 15.6784 2.4 32C2.4 48.3216 15.6784 61.6 32 61.6C48.3216 61.6 61.6 48.3216 61.6 32C61.6 15.6784 48.3216 2.4 32 2.4Z" fill="#141414"/>
<path d="M53.7737 21.1881L53.5249 17.2233L49.7241 18.3833C48.3329 18.8097 41.1001 21.0897 35.3537 24.1137L34.3881 24.6217C27.4969 19.2705 15.8233 14.4025 14.1793 13.7297L11.8345 12.7705L11.4457 15.2737C11.0961 17.5249 8.14254 37.4649 12.0025 44.2969C14.7233 49.1129 19.8529 52.1049 25.3897 52.1049C27.7057 52.1049 30.0529 51.5441 32.1921 50.4817L32.2753 50.6289L33.3665 49.8801L33.9137 49.5985L35.3633 50.0897C36.7953 50.5745 38.2553 50.8209 39.7017 50.8209C40.5225 50.8209 41.3553 50.7449 42.1729 50.5953C45.7665 49.9425 48.8913 47.9297 50.9713 44.9289C54.6193 39.6617 54.0401 25.4265 53.7753 21.1889L53.7737 21.1881Z" fill="white"/>
<path d="M51.7775 21.3126L51.6879 19.875L50.3103 20.295C49.1591 20.6478 41.9215 22.9174 36.2855 25.883C37.4423 26.9406 38.3983 28.0054 38.9887 29.0502C41.0431 32.6862 41.5583 36.9046 40.4407 40.9294C39.6535 43.763 38.1095 46.2494 36.0039 48.1966C37.1935 48.5998 38.4359 48.8222 39.7007 48.8222C40.4015 48.8222 41.1095 48.7574 41.8143 48.6286C44.8831 48.071 47.5503 46.3526 49.3255 43.7902C52.7655 38.823 51.8887 23.0902 51.7775 21.3126Z" fill="#141414"/>
<path d="M37.007 30.1689C33.3766 23.7441 13.4214 15.5801 13.4214 15.5801C13.4214 15.5801 10.1134 36.8881 13.743 43.3129C16.199 47.6609 20.7262 50.1041 25.3886 50.1041C27.4454 50.1041 29.5238 49.6041 31.467 48.6057L27.8902 42.2745L18.7134 39.8449C18.2582 39.7249 17.987 39.2585 18.1078 38.8025C18.2286 38.3489 18.699 38.0713 19.151 38.1961L26.7166 40.1993L22.4126 32.5817L17.479 31.3825C17.0206 31.2713 16.7398 30.8089 16.851 30.3513C16.9622 29.8961 17.4206 29.6089 17.8806 29.7249L21.2622 30.5473L17.3006 23.5361C17.0694 23.1249 17.2142 22.6049 17.6238 22.3737C18.0326 22.1361 18.5542 22.2849 18.787 22.6961L22.5862 29.4209L23.211 26.7633C23.3206 26.3057 23.783 26.0233 24.2374 26.1281C24.6966 26.2369 24.9806 26.6945 24.8726 27.1545L23.8246 31.6137L28.1438 39.2577L29.8998 32.1769C30.0134 31.7169 30.479 31.4497 30.9334 31.5521C31.391 31.6657 31.6702 32.1305 31.5558 32.5857L29.3646 41.4193L32.9398 47.7465C38.5902 43.8697 40.439 36.2489 37.0054 30.1713L37.007 30.1689Z" fill="#141414"/>
</g>
<defs>
<clipPath id="clip0_796_10003">
<rect width="64" height="64" fill="white"/>
</clipPath>
</defs>
</svg>
