<svg width="48" height="48" viewBox="0 0 48 48" fill="none" xmlns="http://www.w3.org/2000/svg">
<g clip-path="url(#clip0_796_11236)">
<path d="M24 48C10.7664 48 0 37.2336 0 24C0 10.7664 10.7664 0 24 0C37.2336 0 48 10.7664 48 24C48 37.2336 37.2336 48 24 48ZM24 1.8C11.7588 1.8 1.8 11.7588 1.8 24C1.8 36.2412 11.7588 46.2 24 46.2C36.2412 46.2 46.2 36.2412 46.2 24C46.2 11.7588 36.2412 1.8 24 1.8Z" fill="#141414"/>
<path d="M40.3302 15.8908L40.1436 12.9172L37.293 13.7872C36.2496 14.107 30.825 15.817 26.5152 18.085L25.791 18.466C20.6226 14.4526 11.8674 10.8016 10.6344 10.297L8.87578 9.57764L8.58418 11.455C8.32198 13.1434 6.10678 28.0984 9.00178 33.2224C11.0424 36.8344 14.8896 39.0784 19.0422 39.0784C20.7792 39.0784 22.5396 38.6578 24.144 37.861L24.2064 37.9714L25.0248 37.4098L25.4352 37.1986L26.5224 37.567C27.5964 37.9306 28.6914 38.1154 29.7762 38.1154C30.3918 38.1154 31.0164 38.0584 31.6296 37.9462C34.3248 37.4566 36.6684 35.947 38.2284 33.6964C40.9644 29.746 40.53 19.0696 40.3314 15.8914L40.3302 15.8908Z" fill="white"/>
<path d="M38.8331 15.9845L38.7659 14.9062L37.7327 15.2212C36.8693 15.4858 31.4411 17.1881 27.2141 19.4123C28.0817 20.2055 28.7987 21.0041 29.2415 21.7877C30.7823 24.5147 31.1687 27.6784 30.3305 30.6971C29.7401 32.8223 28.5821 34.6871 27.0029 36.1475C27.8951 36.4499 28.8269 36.6166 29.7755 36.6166C30.3011 36.6166 30.8321 36.5681 31.3607 36.4715C33.6623 36.0533 35.6627 34.7645 36.9941 32.8426C39.5741 29.1172 38.9165 17.3177 38.8331 15.9845Z" fill="#141414"/>
<path d="M27.7555 22.6267C25.0327 17.8081 10.0663 11.6851 10.0663 11.6851C10.0663 11.6851 7.58527 27.6661 10.3075 32.4847C12.1495 35.7457 15.5449 37.5781 19.0417 37.5781C20.5843 37.5781 22.1431 37.2031 23.6005 36.4543L20.9179 31.7059L14.0353 29.8837C13.6939 29.7937 13.4905 29.4439 13.5811 29.1019C13.6717 28.7617 14.0245 28.5535 14.3635 28.6471L20.0377 30.1495L16.8097 24.4363L13.1095 23.5369C12.7657 23.4535 12.5551 23.1067 12.6385 22.7635C12.7219 22.4221 13.0657 22.2067 13.4107 22.2937L15.9469 22.9105L12.9757 17.6521C12.8023 17.3437 12.9109 16.9537 13.2181 16.7803C13.5247 16.6021 13.9159 16.7137 14.0905 17.0221L16.9399 22.0657L17.4085 20.0725C17.4907 19.7293 17.8375 19.5175 18.1783 19.5961C18.5227 19.6777 18.7357 20.0209 18.6547 20.3659L17.8687 23.7103L21.1081 29.4433L22.4251 24.1327C22.5103 23.7877 22.8595 23.5873 23.2003 23.6641C23.5435 23.7493 23.7529 24.0979 23.6671 24.4393L22.0237 31.0645L24.7051 35.8099C28.9429 32.9023 30.3295 27.1867 27.7543 22.6285L27.7555 22.6267Z" fill="#141414"/>
</g>
<defs>
<clipPath id="clip0_796_11236">
<rect width="48" height="48" fill="white"/>
</clipPath>
</defs>
</svg>
